<svg xmlns="http://www.w3.org/2000/svg" width="375" viewBox="0 0 375 375" height="375" version="1.0"><defs><clipPath id="a"><path d="M 6.964844 6.964844 L 367.714844 6.964844 L 367.714844 367.714844 L 6.964844 367.714844 Z M 6.964844 6.964844"/></clipPath></defs><g clip-path="url(#a)"><path fill="#D4B801" d="M 187.339844 6.964844 C 87.898438 6.964844 6.964844 87.898438 6.964844 187.339844 C 6.964844 286.777344 87.898438 367.714844 187.339844 367.714844 C 286.777344 367.714844 367.714844 286.777344 367.714844 187.339844 C 367.714844 87.898438 286.777344 6.964844 187.339844 6.964844 Z M 187.339844 37.027344 C 270.53125 37.027344 337.652344 104.144531 337.652344 187.339844 C 337.652344 270.53125 270.53125 337.652344 187.339844 337.652344 C 104.144531 337.652344 37.027344 270.53125 37.027344 187.339844 C 37.027344 104.144531 104.144531 37.027344 187.339844 37.027344 Z M 187.339844 67.089844 C 186.355469 67.089844 185.371094 67.136719 184.390625 67.234375 C 183.414062 67.332031 182.441406 67.472656 181.472656 67.667969 C 180.507812 67.859375 179.554688 68.097656 178.613281 68.382812 C 177.671875 68.667969 176.742188 69 175.835938 69.378906 C 174.925781 69.753906 174.035156 70.175781 173.167969 70.636719 C 172.300781 71.101562 171.457031 71.609375 170.636719 72.15625 C 169.820312 72.703125 169.027344 73.289062 168.265625 73.914062 C 167.507812 74.539062 166.777344 75.199219 166.082031 75.894531 C 165.386719 76.589844 164.726562 77.320312 164.101562 78.078125 C 163.476562 78.839844 162.890625 79.632812 162.34375 80.449219 C 161.796875 81.269531 161.289062 82.113281 160.824219 82.980469 C 160.363281 83.847656 159.941406 84.738281 159.566406 85.648438 C 159.1875 86.554688 158.855469 87.484375 158.570312 88.425781 C 158.285156 89.367188 158.046875 90.320312 157.855469 91.285156 C 157.660156 92.253906 157.519531 93.226562 157.421875 94.203125 C 157.324219 95.183594 157.277344 96.167969 157.277344 97.152344 C 157.277344 98.136719 157.324219 99.117188 157.421875 100.097656 C 157.519531 101.078125 157.660156 102.050781 157.855469 103.015625 C 158.046875 103.980469 158.285156 104.9375 158.570312 105.878906 C 158.855469 106.820312 159.1875 107.746094 159.566406 108.65625 C 159.941406 109.566406 160.363281 110.453125 160.824219 111.324219 C 161.289062 112.191406 161.796875 113.035156 162.34375 113.851562 C 162.890625 114.671875 163.476562 115.460938 164.101562 116.222656 C 164.726562 116.984375 165.386719 117.710938 166.082031 118.410156 C 166.777344 119.105469 167.507812 119.765625 168.265625 120.390625 C 169.027344 121.015625 169.820312 121.601562 170.636719 122.148438 C 171.457031 122.695312 172.300781 123.199219 173.167969 123.664062 C 174.035156 124.128906 174.925781 124.546875 175.835938 124.925781 C 176.742188 125.300781 177.671875 125.632812 178.613281 125.917969 C 179.554688 126.207031 180.507812 126.445312 181.472656 126.636719 C 182.441406 126.828125 183.414062 126.972656 184.390625 127.070312 C 185.371094 127.164062 186.355469 127.214844 187.339844 127.214844 C 188.324219 127.214844 189.304688 127.164062 190.285156 127.070312 C 191.265625 126.972656 192.238281 126.828125 193.203125 126.636719 C 194.167969 126.445312 195.125 126.207031 196.066406 125.917969 C 197.007812 125.632812 197.933594 125.300781 198.84375 124.925781 C 199.753906 124.546875 200.640625 124.128906 201.511719 123.664062 C 202.378906 123.199219 203.222656 122.695312 204.039062 122.148438 C 204.859375 121.601562 205.648438 121.015625 206.410156 120.390625 C 207.171875 119.765625 207.898438 119.105469 208.597656 118.410156 C 209.292969 117.710938 209.953125 116.984375 210.578125 116.222656 C 211.203125 115.460938 211.789062 114.671875 212.335938 113.851562 C 212.882812 113.035156 213.386719 112.191406 213.851562 111.324219 C 214.316406 110.453125 214.734375 109.566406 215.113281 108.65625 C 215.488281 107.746094 215.820312 106.820312 216.105469 105.878906 C 216.394531 104.9375 216.632812 103.980469 216.824219 103.015625 C 217.015625 102.050781 217.160156 101.078125 217.257812 100.097656 C 217.351562 99.117188 217.402344 98.136719 217.402344 97.152344 C 217.402344 96.167969 217.351562 95.183594 217.257812 94.203125 C 217.160156 93.226562 217.015625 92.253906 216.824219 91.285156 C 216.632812 90.320312 216.394531 89.367188 216.105469 88.425781 C 215.820312 87.484375 215.488281 86.554688 215.113281 85.648438 C 214.734375 84.738281 214.316406 83.847656 213.851562 82.980469 C 213.386719 82.113281 212.882812 81.269531 212.335938 80.449219 C 211.789062 79.632812 211.203125 78.839844 210.578125 78.078125 C 209.953125 77.320312 209.292969 76.589844 208.597656 75.894531 C 207.898438 75.199219 207.171875 74.539062 206.410156 73.914062 C 205.648438 73.289062 204.859375 72.703125 204.039062 72.15625 C 203.222656 71.609375 202.378906 71.101562 201.511719 70.636719 C 200.640625 70.175781 199.753906 69.753906 198.84375 69.378906 C 197.933594 69 197.007812 68.667969 196.066406 68.382812 C 195.125 68.097656 194.167969 67.859375 193.203125 67.667969 C 192.238281 67.472656 191.265625 67.332031 190.285156 67.234375 C 189.304688 67.136719 188.324219 67.089844 187.339844 67.089844 Z M 278.113281 81.972656 C 276.164062 81.917969 274.273438 82.230469 272.445312 82.910156 C 270.617188 83.59375 268.984375 84.589844 267.542969 85.90625 L 204.160156 142.246094 L 170.515625 142.246094 L 107.132812 85.90625 C 106.394531 85.25 105.601562 84.675781 104.746094 84.175781 C 103.894531 83.675781 103.003906 83.265625 102.070312 82.945312 C 101.136719 82.621094 100.183594 82.390625 99.203125 82.257812 C 98.226562 82.121094 97.246094 82.082031 96.257812 82.140625 C 95.273438 82.199219 94.304688 82.355469 93.347656 82.605469 C 92.394531 82.855469 91.472656 83.195312 90.582031 83.625 C 89.695312 84.058594 88.859375 84.570312 88.070312 85.167969 C 87.285156 85.765625 86.5625 86.429688 85.90625 87.167969 C 85.25 87.90625 84.675781 88.703125 84.175781 89.554688 C 83.675781 90.40625 83.265625 91.300781 82.945312 92.234375 C 82.621094 93.164062 82.390625 94.121094 82.257812 95.097656 C 82.121094 96.078125 82.082031 97.058594 82.140625 98.042969 C 82.199219 99.03125 82.355469 100 82.605469 100.953125 C 82.855469 101.910156 83.195312 102.832031 83.625 103.71875 C 84.058594 104.609375 84.570312 105.445312 85.167969 106.230469 C 85.765625 107.019531 86.429688 107.738281 87.167969 108.394531 L 154.808594 168.519531 C 155.570312 169.203125 156.394531 169.796875 157.277344 170.3125 L 157.277344 214.964844 L 100.617188 282.929688 C 95.292969 289.316406 96.179688 298.789062 102.554688 304.09375 C 108.957031 309.402344 118.398438 308.558594 123.71875 302.1875 L 177.355469 243.382812 C 182.707031 237.507812 191.96875 237.507812 197.320312 243.382812 L 250.957031 302.1875 C 253.933594 305.765625 258.210938 307.589844 262.523438 307.589844 C 265.921875 307.589844 269.296875 306.453125 272.125 304.125 C 278.484375 298.804688 279.367188 289.316406 274.0625 282.929688 L 217.402344 214.964844 L 217.402344 170.28125 C 218.28125 169.777344 219.105469 169.191406 219.867188 168.519531 L 287.507812 108.394531 C 288.078125 107.902344 288.613281 107.371094 289.101562 106.800781 C 289.59375 106.226562 290.039062 105.621094 290.441406 104.984375 C 290.84375 104.34375 291.191406 103.679688 291.492188 102.988281 C 291.792969 102.292969 292.039062 101.585938 292.234375 100.855469 C 292.425781 100.125 292.5625 99.386719 292.648438 98.636719 C 292.730469 97.886719 292.753906 97.136719 292.722656 96.382812 C 292.691406 95.628906 292.605469 94.882812 292.460938 94.140625 C 292.316406 93.402344 292.121094 92.675781 291.867188 91.964844 C 291.613281 91.253906 291.308594 90.566406 290.953125 89.902344 C 290.597656 89.238281 290.195312 88.601562 289.742188 87.996094 C 289.289062 87.394531 288.796875 86.828125 288.257812 86.296875 C 287.722656 85.769531 287.148438 85.28125 286.539062 84.839844 C 285.929688 84.394531 285.289062 84 284.617188 83.652344 C 283.949219 83.304688 283.257812 83.011719 282.542969 82.769531 C 281.828125 82.523438 281.101562 82.335938 280.359375 82.203125 C 279.617188 82.070312 278.867188 81.992188 278.113281 81.972656 Z M 67.089844 142.246094 C 58.792969 142.246094 52.058594 148.980469 52.058594 157.277344 C 52.058594 165.574219 58.792969 172.308594 67.089844 172.308594 L 129.738281 172.308594 L 97.0625 142.246094 Z M 277.613281 142.246094 L 244.9375 172.308594 L 307.589844 172.308594 C 315.886719 172.308594 322.621094 165.574219 322.621094 157.277344 C 322.621094 148.980469 315.886719 142.246094 307.589844 142.246094 Z M 177.710938 276.46875 L 143.832031 313.605469 C 145.816406 318.042969 149.65625 321.558594 154.808594 322.414062 C 155.652344 322.566406 156.480469 322.621094 157.304688 322.621094 C 164.519531 322.621094 170.871094 317.40625 172.101562 310.054688 Z M 196.96875 276.46875 L 202.574219 310.054688 C 203.808594 317.40625 210.15625 322.621094 217.371094 322.621094 C 218.199219 322.621094 219.027344 322.566406 219.867188 322.414062 C 225.023438 321.558594 228.863281 318.042969 230.847656 313.605469 Z M 196.96875 276.46875"/></g></svg>