<svg xmlns="http://www.w3.org/2000/svg" width="375" viewBox="0 0 375 375" height="375" version="1.0"><defs><clipPath id="a"><path d="M 34.839844 12.183594 L 340.089844 12.183594 L 340.089844 317.433594 L 34.839844 317.433594 Z M 34.839844 12.183594"/></clipPath></defs><g clip-path="url(#a)"><path fill="#FAD02C" d="M 187.464844 12.183594 C 103.324219 12.183594 34.839844 80.667969 34.839844 164.808594 C 34.839844 248.953125 103.324219 317.433594 187.464844 317.433594 C 271.609375 317.433594 340.089844 248.953125 340.089844 164.808594 C 340.089844 80.667969 271.609375 12.183594 187.464844 12.183594 Z M 187.464844 37.621094 C 257.859375 37.621094 314.652344 94.417969 314.652344 164.808594 C 314.652344 235.203125 257.859375 291.996094 187.464844 291.996094 C 117.070312 291.996094 60.277344 235.203125 60.277344 164.808594 C 60.277344 94.417969 117.070312 37.621094 187.464844 37.621094 Z M 187.464844 63.058594 C 186.632812 63.058594 185.800781 63.101562 184.972656 63.183594 C 184.144531 63.265625 183.320312 63.386719 182.503906 63.550781 C 181.6875 63.710938 180.878906 63.914062 180.082031 64.15625 C 179.285156 64.398438 178.5 64.679688 177.730469 64.996094 C 176.960938 65.316406 176.210938 65.671875 175.476562 66.0625 C 174.742188 66.457031 174.027344 66.882812 173.332031 67.347656 C 172.640625 67.808594 171.972656 68.304688 171.328125 68.835938 C 170.683594 69.363281 170.066406 69.921875 169.480469 70.511719 C 168.890625 71.101562 168.332031 71.714844 167.804688 72.359375 C 167.273438 73.003906 166.777344 73.671875 166.316406 74.367188 C 165.851562 75.058594 165.425781 75.773438 165.03125 76.507812 C 164.640625 77.242188 164.285156 77.992188 163.964844 78.761719 C 163.644531 79.53125 163.367188 80.316406 163.125 81.113281 C 162.882812 81.910156 162.679688 82.71875 162.515625 83.535156 C 162.355469 84.351562 162.234375 85.175781 162.152344 86.003906 C 162.070312 86.832031 162.027344 87.664062 162.027344 88.496094 C 162.027344 89.332031 162.070312 90.164062 162.152344 90.992188 C 162.234375 91.820312 162.355469 92.644531 162.515625 93.460938 C 162.679688 94.277344 162.882812 95.085938 163.125 95.882812 C 163.367188 96.679688 163.644531 97.460938 163.964844 98.234375 C 164.285156 99.003906 164.640625 99.753906 165.03125 100.488281 C 165.425781 101.222656 165.851562 101.9375 166.316406 102.628906 C 166.777344 103.324219 167.273438 103.992188 167.804688 104.636719 C 168.332031 105.28125 168.890625 105.894531 169.480469 106.484375 C 170.066406 107.074219 170.683594 107.632812 171.328125 108.160156 C 171.972656 108.691406 172.640625 109.1875 173.332031 109.648438 C 174.027344 110.113281 174.742188 110.539062 175.476562 110.933594 C 176.210938 111.324219 176.960938 111.679688 177.730469 112 C 178.5 112.316406 179.285156 112.597656 180.082031 112.839844 C 180.878906 113.082031 181.6875 113.285156 182.503906 113.445312 C 183.320312 113.609375 184.144531 113.730469 184.972656 113.8125 C 185.800781 113.894531 186.632812 113.933594 187.464844 113.933594 C 188.300781 113.933594 189.128906 113.894531 189.960938 113.8125 C 190.789062 113.730469 191.613281 113.609375 192.429688 113.445312 C 193.246094 113.285156 194.054688 113.082031 194.851562 112.839844 C 195.648438 112.597656 196.429688 112.316406 197.199219 112 C 197.96875 111.679688 198.722656 111.324219 199.457031 110.933594 C 200.191406 110.539062 200.90625 110.109375 201.597656 109.648438 C 202.292969 109.1875 202.960938 108.691406 203.605469 108.160156 C 204.246094 107.632812 204.863281 107.074219 205.453125 106.484375 C 206.042969 105.894531 206.601562 105.28125 207.128906 104.636719 C 207.660156 103.992188 208.152344 103.324219 208.617188 102.628906 C 209.078125 101.9375 209.507812 101.222656 209.898438 100.488281 C 210.292969 99.753906 210.648438 99.003906 210.96875 98.234375 C 211.285156 97.460938 211.566406 96.679688 211.808594 95.882812 C 212.050781 95.085938 212.253906 94.277344 212.414062 93.460938 C 212.578125 92.644531 212.699219 91.820312 212.78125 90.992188 C 212.863281 90.164062 212.902344 89.332031 212.902344 88.496094 C 212.902344 87.664062 212.863281 86.832031 212.78125 86.003906 C 212.699219 85.175781 212.578125 84.351562 212.414062 83.535156 C 212.253906 82.71875 212.050781 81.910156 211.808594 81.113281 C 211.566406 80.316406 211.285156 79.53125 210.96875 78.761719 C 210.648438 77.992188 210.292969 77.242188 209.898438 76.507812 C 209.507812 75.773438 209.078125 75.058594 208.617188 74.367188 C 208.152344 73.671875 207.660156 73.003906 207.128906 72.359375 C 206.601562 71.714844 206.042969 71.101562 205.453125 70.511719 C 204.863281 69.921875 204.246094 69.363281 203.605469 68.835938 C 202.960938 68.304688 202.292969 67.808594 201.597656 67.347656 C 200.90625 66.882812 200.191406 66.457031 199.457031 66.0625 C 198.722656 65.671875 197.96875 65.316406 197.199219 64.996094 C 196.429688 64.679688 195.648438 64.398438 194.851562 64.15625 C 194.054688 63.914062 193.246094 63.710938 192.429688 63.550781 C 191.613281 63.386719 190.789062 63.265625 189.960938 63.183594 C 189.128906 63.101562 188.300781 63.058594 187.464844 63.058594 Z M 264.277344 75.65625 C 262.625 75.609375 261.027344 75.875 259.480469 76.449219 C 257.933594 77.023438 256.550781 77.871094 255.332031 78.984375 L 201.699219 126.652344 L 173.230469 126.652344 L 119.601562 78.984375 C 118.976562 78.429688 118.300781 77.941406 117.582031 77.519531 C 116.859375 77.097656 116.105469 76.75 115.316406 76.476562 C 114.527344 76.203125 113.71875 76.007812 112.890625 75.894531 C 112.0625 75.78125 111.230469 75.75 110.398438 75.796875 C 109.566406 75.847656 108.742188 75.976562 107.933594 76.191406 C 107.128906 76.402344 106.347656 76.6875 105.597656 77.054688 C 104.84375 77.417969 104.136719 77.855469 103.46875 78.359375 C 102.804688 78.863281 102.195312 79.425781 101.640625 80.050781 C 101.085938 80.675781 100.597656 81.347656 100.175781 82.070312 C 99.753906 82.792969 99.40625 83.546875 99.132812 84.335938 C 98.859375 85.125 98.664062 85.933594 98.550781 86.761719 C 98.4375 87.589844 98.40625 88.417969 98.453125 89.253906 C 98.503906 90.085938 98.632812 90.910156 98.84375 91.714844 C 99.058594 92.523438 99.34375 93.304688 99.710938 94.054688 C 100.074219 94.808594 100.507812 95.515625 101.015625 96.179688 C 101.519531 96.847656 102.082031 97.457031 102.707031 98.011719 L 159.941406 148.886719 C 160.585938 149.464844 161.28125 149.96875 162.027344 150.402344 L 162.027344 188.1875 L 114.085938 245.695312 C 109.582031 251.097656 110.332031 259.113281 115.722656 263.605469 C 121.144531 268.09375 129.132812 267.382812 133.636719 261.988281 L 179.019531 212.234375 C 183.546875 207.257812 191.382812 207.257812 195.914062 212.234375 L 241.296875 261.988281 C 243.816406 265.015625 247.433594 266.558594 251.085938 266.558594 C 253.960938 266.558594 256.816406 265.601562 259.207031 263.628906 C 264.589844 259.125 265.335938 251.097656 260.847656 245.695312 L 212.902344 188.1875 L 212.902344 150.378906 C 213.648438 149.953125 214.34375 149.453125 214.992188 148.886719 L 272.226562 98.011719 C 273.199219 97.175781 274.023438 96.210938 274.707031 95.125 C 275.386719 94.035156 275.894531 92.871094 276.222656 91.632812 C 276.550781 90.390625 276.691406 89.128906 276.636719 87.847656 C 276.585938 86.566406 276.34375 85.320312 275.914062 84.109375 C 275.484375 82.898438 274.882812 81.78125 274.113281 80.753906 C 273.347656 79.726562 272.441406 78.832031 271.402344 78.078125 C 270.367188 77.324219 269.238281 76.742188 268.023438 76.328125 C 266.808594 75.914062 265.558594 75.691406 264.277344 75.65625 Z M 85.714844 126.652344 C 78.695312 126.652344 72.996094 132.351562 72.996094 139.371094 C 72.996094 146.394531 78.695312 152.089844 85.714844 152.089844 L 138.726562 152.089844 L 111.078125 126.652344 Z M 263.851562 126.652344 L 236.203125 152.089844 L 289.214844 152.089844 C 296.238281 152.089844 301.933594 146.394531 301.933594 139.371094 C 301.933594 132.351562 296.238281 126.652344 289.214844 126.652344 Z M 179.316406 240.230469 L 150.652344 271.652344 C 152.332031 275.40625 155.578125 278.378906 159.941406 279.105469 C 160.65625 279.234375 161.355469 279.277344 162.054688 279.277344 C 168.160156 279.277344 173.53125 274.867188 174.574219 268.648438 Z M 195.613281 240.230469 L 200.359375 268.648438 C 201.402344 274.867188 206.773438 279.277344 212.878906 279.277344 C 213.578125 279.277344 214.277344 279.234375 214.992188 279.105469 C 219.351562 278.378906 222.601562 275.40625 224.28125 271.652344 Z M 195.613281 240.230469"/></g><g fill="#FAD02C"><g><g><path d="M 4.796875 -43.5 L 22.140625 -43.5 C 27.660156 -43.5 31.816406 -42.3125 34.609375 -39.9375 C 37.398438 -37.5625 38.796875 -34.132812 38.796875 -29.65625 C 38.796875 -26.675781 38.132812 -24.117188 36.8125 -21.984375 C 35.488281 -19.847656 33.578125 -18.265625 31.078125 -17.234375 L 39.171875 0 L 29.25 0 L 22.265625 -15.734375 L 13.65625 -15.734375 L 13.65625 0 L 4.796875 0 Z M 22.140625 -23.421875 C 24.628906 -23.421875 26.476562 -23.992188 27.6875 -25.140625 C 28.90625 -26.296875 29.515625 -27.78125 29.515625 -29.59375 C 29.515625 -31.445312 28.898438 -32.945312 27.671875 -34.09375 C 26.453125 -35.238281 24.609375 -35.8125 22.140625 -35.8125 L 13.65625 -35.8125 L 13.65625 -23.421875 Z M 22.140625 -23.421875" transform="translate(74.443 364.086)"/></g></g></g><g fill="#FAD02C"><g><g><path d="M 33.328125 -9.640625 C 32.648438 -6.460938 30.925781 -3.910156 28.15625 -1.984375 C 25.394531 -0.0664062 22.117188 0.890625 18.328125 0.890625 C 15.160156 0.890625 12.363281 0.210938 9.9375 -1.140625 C 7.507812 -2.503906 5.628906 -4.414062 4.296875 -6.875 C 2.972656 -9.332031 2.3125 -12.15625 2.3125 -15.34375 C 2.3125 -18.539062 2.972656 -21.359375 4.296875 -23.796875 C 5.628906 -26.242188 7.5 -28.125 9.90625 -29.4375 C 12.3125 -30.75 15.050781 -31.40625 18.125 -31.40625 C 21.101562 -31.40625 23.734375 -30.785156 26.015625 -29.546875 C 28.304688 -28.316406 30.085938 -26.59375 31.359375 -24.375 C 32.628906 -22.15625 33.265625 -19.640625 33.265625 -16.828125 C 33.265625 -15.703125 33.144531 -14.390625 32.90625 -12.890625 L 10.671875 -12.890625 C 10.753906 -10.816406 11.5 -9.144531 12.90625 -7.875 C 14.3125 -6.601562 16.117188 -5.96875 18.328125 -5.96875 C 19.960938 -5.96875 21.375 -6.296875 22.5625 -6.953125 C 23.757812 -7.617188 24.609375 -8.515625 25.109375 -9.640625 Z M 24.625 -18.515625 C 24.570312 -20.378906 23.914062 -21.835938 22.65625 -22.890625 C 21.40625 -23.953125 19.804688 -24.484375 17.859375 -24.484375 C 15.828125 -24.484375 14.15625 -23.941406 12.84375 -22.859375 C 11.53125 -21.773438 10.828125 -20.328125 10.734375 -18.515625 Z M 24.625 -18.515625" transform="translate(114.263 364.086)"/></g></g></g><g fill="#FAD02C"><g><g><path d="M 21.171875 -31.40625 C 24.753906 -31.40625 27.5625 -30.273438 29.59375 -28.015625 C 31.625 -25.753906 32.640625 -22.703125 32.640625 -18.859375 L 32.640625 0 L 24.15625 0 L 24.15625 -16.90625 C 24.15625 -21.519531 22.300781 -23.828125 18.59375 -23.828125 C 16.5625 -23.828125 15.015625 -23.222656 13.953125 -22.015625 C 12.890625 -20.816406 12.359375 -19.222656 12.359375 -17.234375 L 12.359375 0 L 3.9375 0 L 3.9375 -30.421875 L 11 -30.421875 L 11.53125 -26.875 C 12.476562 -28.257812 13.8125 -29.359375 15.53125 -30.171875 C 17.257812 -30.992188 19.140625 -31.40625 21.171875 -31.40625 Z M 21.171875 -31.40625" transform="translate(147.755 364.086)"/></g></g></g><g fill="#FAD02C"><g><g><path d="M 35.421875 -30.421875 L 35.421875 0 L 27.328125 0 L 27.328125 -3.875 C 26.296875 -2.414062 24.828125 -1.253906 22.921875 -0.390625 C 21.023438 0.460938 18.953125 0.890625 16.703125 0.890625 C 13.890625 0.890625 11.394531 0.234375 9.21875 -1.078125 C 7.050781 -2.390625 5.359375 -4.242188 4.140625 -6.640625 C 2.921875 -9.035156 2.3125 -11.828125 2.3125 -15.015625 C 2.3125 -18.253906 2.941406 -21.113281 4.203125 -23.59375 C 5.460938 -26.082031 7.242188 -28.003906 9.546875 -29.359375 C 11.859375 -30.722656 14.484375 -31.40625 17.421875 -31.40625 C 19.679688 -31.40625 21.691406 -31.023438 23.453125 -30.265625 C 25.222656 -29.503906 26.660156 -28.394531 27.765625 -26.9375 L 28.421875 -30.421875 Z M 18.859375 -6.796875 C 21.265625 -6.796875 23.210938 -7.570312 24.703125 -9.125 C 26.191406 -10.6875 26.9375 -12.757812 26.9375 -15.34375 C 26.9375 -17.925781 26.203125 -19.992188 24.734375 -21.546875 C 23.265625 -23.109375 21.328125 -23.890625 18.921875 -23.890625 C 16.460938 -23.890625 14.515625 -23.097656 13.078125 -21.515625 C 11.648438 -19.941406 10.9375 -17.882812 10.9375 -15.34375 C 10.9375 -12.800781 11.671875 -10.738281 13.140625 -9.15625 C 14.609375 -7.582031 16.515625 -6.796875 18.859375 -6.796875 Z M 18.859375 -6.796875" transform="translate(182.274 364.086)"/></g></g></g><g fill="#FAD02C"><g><g><path d="M 8.21875 -35.6875 C 6.582031 -35.6875 5.210938 -36.222656 4.109375 -37.296875 C 3.003906 -38.367188 2.453125 -39.664062 2.453125 -41.1875 C 2.453125 -42.726562 3.003906 -44.03125 4.109375 -45.09375 C 5.210938 -46.15625 6.582031 -46.6875 8.21875 -46.6875 C 9.894531 -46.6875 11.265625 -46.164062 12.328125 -45.125 C 13.390625 -44.09375 13.921875 -42.78125 13.921875 -41.1875 C 13.921875 -39.632812 13.378906 -38.328125 12.296875 -37.265625 C 11.210938 -36.210938 9.851562 -35.6875 8.21875 -35.6875 Z M 4.015625 -30.421875 L 12.421875 -30.421875 L 12.421875 0 L 4.015625 0 Z M 4.015625 -30.421875" transform="translate(219.842 364.086)"/></g></g></g><g fill="#FAD02C"><g><g><path d="M 7.453125 0.828125 C 5.890625 0.828125 4.59375 0.328125 3.5625 -0.671875 C 2.53125 -1.679688 2.015625 -2.90625 2.015625 -4.34375 C 2.015625 -5.800781 2.53125 -7.046875 3.5625 -8.078125 C 4.59375 -9.117188 5.890625 -9.640625 7.453125 -9.640625 C 9.003906 -9.640625 10.285156 -9.117188 11.296875 -8.078125 C 12.316406 -7.046875 12.828125 -5.800781 12.828125 -4.34375 C 12.828125 -2.945312 12.328125 -1.734375 11.328125 -0.703125 C 10.335938 0.316406 9.046875 0.828125 7.453125 0.828125 Z M 7.453125 0.828125" transform="translate(234.48 364.086)"/></g></g></g><g fill="#FAD02C"><g><g><path d="M 8.21875 -35.6875 C 6.582031 -35.6875 5.210938 -36.222656 4.109375 -37.296875 C 3.003906 -38.367188 2.453125 -39.664062 2.453125 -41.1875 C 2.453125 -42.726562 3.003906 -44.03125 4.109375 -45.09375 C 5.210938 -46.15625 6.582031 -46.6875 8.21875 -46.6875 C 9.894531 -46.6875 11.265625 -46.164062 12.328125 -45.125 C 13.390625 -44.09375 13.921875 -42.78125 13.921875 -41.1875 C 13.921875 -39.632812 13.378906 -38.328125 12.296875 -37.265625 C 11.210938 -36.210938 9.851562 -35.6875 8.21875 -35.6875 Z M 4.015625 -30.421875 L 12.421875 -30.421875 L 12.421875 0 L 4.015625 0 Z M 4.015625 -30.421875" transform="translate(247.694 364.086)"/></g></g></g><g fill="#FAD02C"><g><g><path d="M 2.3125 -15.28125 C 2.3125 -18.394531 3.015625 -21.171875 4.421875 -23.609375 C 5.828125 -26.046875 7.804688 -27.953125 10.359375 -29.328125 C 12.910156 -30.710938 15.804688 -31.40625 19.046875 -31.40625 C 22.296875 -31.40625 25.203125 -30.710938 27.765625 -29.328125 C 30.328125 -27.953125 32.304688 -26.046875 33.703125 -23.609375 C 35.109375 -21.171875 35.8125 -18.394531 35.8125 -15.28125 C 35.8125 -12.164062 35.109375 -9.378906 33.703125 -6.921875 C 32.304688 -4.472656 30.332031 -2.554688 27.78125 -1.171875 C 25.226562 0.203125 22.316406 0.890625 19.046875 0.890625 C 15.804688 0.890625 12.921875 0.203125 10.390625 -1.171875 C 7.859375 -2.554688 5.878906 -4.46875 4.453125 -6.90625 C 3.023438 -9.34375 2.3125 -12.132812 2.3125 -15.28125 Z M 10.9375 -15.28125 C 10.9375 -12.78125 11.691406 -10.707031 13.203125 -9.0625 C 14.710938 -7.414062 16.660156 -6.59375 19.046875 -6.59375 C 21.453125 -6.59375 23.410156 -7.414062 24.921875 -9.0625 C 26.441406 -10.707031 27.203125 -12.78125 27.203125 -15.28125 C 27.203125 -17.8125 26.457031 -19.878906 24.96875 -21.484375 C 23.476562 -23.085938 21.503906 -23.890625 19.046875 -23.890625 C 16.640625 -23.890625 14.6875 -23.082031 13.1875 -21.46875 C 11.6875 -19.851562 10.9375 -17.789062 10.9375 -15.28125 Z M 10.9375 -15.28125" transform="translate(262.333 364.086)"/></g></g></g></svg>