<svg xmlns="http://www.w3.org/2000/svg" xmlns:xlink="http://www.w3.org/1999/xlink" viewBox="0 0 30 30" fill="#056DF3">
  <path d="M15.023438 3.9296875 A 1.0001 1.0001 0 0 0 14.681641 3.9804688L2.6816406 8.015625 A 1.0001 1.0001 0 0 0 2.6816406 9.9121094L14.681641 13.947266 A 1.0001 1.0001 0 0 0 15.318359 13.947266L27.318359 9.9121094 A 1.0001 1.0001 0 0 0 27.318359 8.015625L15.318359 3.9804688 A 1.0001 1.0001 0 0 0 15.023438 3.9296875 z M 27.044922 11.958984 A 1.0001 1.0001 0 0 0 26.681641 12.015625L15 15.945312L3.3183594 12.015625 A 1.0002578 1.0002578 0 0 0 2.6816406 13.912109L14.681641 17.947266 A 1.0001 1.0001 0 0 0 15.318359 17.947266L27.318359 13.912109 A 1.0001 1.0001 0 0 0 27.044922 11.958984 z M 27.044922 15.958984 A 1.0001 1.0001 0 0 0 26.681641 16.015625L15 19.945312L3.3183594 16.015625 A 1.0002578 1.0002578 0 1 0 2.6816406 17.912109L14.681641 21.947266 A 1.0001 1.0001 0 0 0 15.318359 21.947266L27.318359 17.912109 A 1.0001 1.0001 0 0 0 27.044922 15.958984 z M 27.044922 19.958984 A 1.0001 1.0001 0 0 0 26.681641 20.015625L15 23.945312L3.3183594 20.015625 A 1.0002578 1.0002578 0 1 0 2.6816406 21.912109L14.681641 25.947266 A 1.0001 1.0001 0 0 0 15.318359 25.947266L27.318359 21.912109 A 1.0001 1.0001 0 0 0 27.044922 19.958984 z" fill="#056DF3" />
</svg>