<svg xmlns="http://www.w3.org/2000/svg" xmlns:xlink="http://www.w3.org/1999/xlink" viewBox="0 0 24 24" fill="#056DF3">
  <path d="M2 2C1.448 2 1 2.448 1 3L1 13C1 13.552 1.448 14 2 14L4 14C4.552 14 5 13.552 5 13L5 3C5 2.448 4.552 2 4 2L2 2 z M 9 2C7.895 2 7 2.895 7 4L7 13.992188C7 14.522187 7.2099844 15.029297 7.5839844 15.404297L13.113281 20.945312C13.696281 21.529312 14.640516 21.533078 15.228516 20.955078C15.595516 20.594078 15.752578 20.068453 15.642578 19.564453L14.648438 15L21 15C22.105 15 23 14.105 23 13L23 11.001953C23 10.730953 22.944891 10.461891 22.837891 10.212891L19.830078 3.2109375C19.515078 2.4759375 18.791188 2 17.992188 2L9 2 z" fill="#056DF3" />
</svg>