<svg xmlns="http://www.w3.org/2000/svg" xmlns:xlink="http://www.w3.org/1999/xlink" viewBox="0 0 24 24" fill="#056DF3">
  <path d="M14.169922 1.6132812C13.787547 1.6150312 13.404781 1.7626875 13.113281 2.0546875L7.5839844 7.5957031C7.2099844 7.9707031 7 8.4778125 7 9.0078125L7 19C7 20.105 7.895 21 9 21L17.992188 21C18.791188 21 19.514078 20.524062 19.830078 19.789062L22.837891 12.787109C22.944891 12.538109 23 12.269047 23 11.998047L23 10C23 8.895 22.105 8 21 8L14.648438 8L15.642578 3.4355469C15.752578 2.9315469 15.595516 2.4059219 15.228516 2.0449219C14.934516 1.7559219 14.552297 1.6115313 14.169922 1.6132812 z M 2 9C1.448 9 1 9.448 1 10L1 20C1 20.552 1.448 21 2 21L4 21C4.552 21 5 20.552 5 20L5 10C5 9.448 4.552 9 4 9L2 9 z" fill="#056DF3" />
</svg>