<svg xmlns="http://www.w3.org/2000/svg" viewBox="0 0 80 80">
  <path d="M19 10c-3.3 0-6 2.7-6 6s2.7 6 6 6 6-2.7 6-6-2.7-6-6-6zm45 0c-3.3 0-6 2.7-6 6 0 1.281.41 2.469 1.098 3.445l-.278.809.504.742.895.04.27-.184A5.959 5.959 0 0064 22c3.3 0 6-2.7 6-6s-2.7-6-6-6zm-45 2c2.223 0 4 1.777 4 4s-1.777 4-4 4-4-1.777-4-4 1.777-4 4-4zm45 0c2.223 0 4 1.777 4 4s-1.777 4-4 4-4-1.777-4-4 1.777-4 4-4zm-39.734 9.813l-.754.48-.075.89.188.301.066.075.84.316.758-.473.07-.898-.187-.297-.067-.07zm32.28.195l-.292.199-.07.07-.293.848.504.738.898.043.289-.203.07-.066.29-.848-.505-.742zm-29.515 2.836l-.761.476-.067.895.188.297.066.074.836.32.758-.476.074-.895-.191-.297-.067-.074zm26.582.031l-.289.203-.07.067-.293.851.508.738.89.04.293-.2.07-.07.294-.848-.504-.738zM40 25c-3.52 0-6.75 1.227-9.313 3.262l-.058-.07-.836-.32-.758.476-.07.894.187.301.059.062C26.609 32.305 25 35.965 25 40c0 8.273 6.727 15 15 15 1.074 0 2.121-.117 3.137-.332l.586.633.89-.094.461-.77-.035-.328a15.076 15.076 0 008.195-7.058l.196.726.277.22.09.046.894.02.555-.708-.234-.867-.278-.215-.093-.046-.891-.02-.281.355A14.918 14.918 0 0055 40c0-4.031-1.605-7.688-4.203-10.387l.637.028.289-.2.074-.066.289-.848-.504-.742-.895-.039-.292.2-.07.07-.294.847.032.047C47.398 26.488 43.874 25 40 25zm0 2c7.191 0 13 5.809 13 13s-5.809 13-13 13-13-5.809-13-13 5.809-13 13-13zm-.5 4.098v1.351c-2.633.242-4.234 1.735-4.234 3.992 0 1.907 1.187 3.215 3.367 3.774l.867.222v4.454c-1.453-.164-2.39-.977-2.488-2.141h-2.07c.011 2.266 1.765 3.797 4.558 3.984v1.27h1.34v-1.281c2.863-.243 4.512-1.735 4.512-4.13 0-2.019-1.157-3.261-3.606-3.859l-.906-.203v-4.207c1.289.153 2.168.996 2.207 2.067h2.043c-.063-2.176-1.723-3.72-4.25-3.942v-1.351zm0 3.215v3.937c-1.402-.285-2.145-.977-2.145-1.984 0-1.063.895-1.887 2.145-1.953zm1.34 6.374c1.66.333 2.43 1.008 2.43 2.13 0 1.242-.887 2.003-2.43 2.09zM25.656 46.95l-.332.11-.09.046-.515.735.281.847.848.286.336-.11.086-.047.515-.734-.277-.848zM67 48c-1.926 0-3.64.922-4.738 2.34l-.008-.012-.274-.219-.09-.047-.894-.019-.555.707.235.863.277.215.09.047.352.012A5.922 5.922 0 0061 54c0 3.3 2.7 6 6 6s6-2.7 6-6-2.7-6-6-6zm-9.629.125l-.555.703.235.867.281.215.09.047.89.023.555-.707-.234-.867-.278-.215-.09-.046zm-35.324.766l-.332.109-.09.047-.516.734.282.856.847.285.336-.11.086-.05.516-.73-.278-.856zM13 49c-3.3 0-6 2.7-6 6s2.7 6 6 6 6-2.7 6-6a5.93 5.93 0 00-.406-2.145l.035.008.336-.11.086-.046.515-.734-.277-.848-.852-.285-.332.11-.09.046-.257.367A5.985 5.985 0 0013 49zm54 1c2.223 0 4 1.777 4 4s-1.777 4-4 4-4-1.777-4-4 1.777-4 4-4zm-54 1c2.223 0 4 1.777 4 4s-1.777 4-4 4-4-1.777-4-4 1.777-4 4-4zm32.543 6.273l-.895.094-.457.77.036.347.027.098.61.656.89-.093.46-.77-.038-.348-.028-.097zm1.137 3.938l-.89.094-.462.77.04.35.027.095.054.058C43.418 63.543 42 65.61 42 68c0 3.3 2.7 6 6 6s6-2.7 6-6-2.7-6-6-6c-.23 0-.453.016-.676.043l-.008-.078-.027-.094zM48 64c2.223 0 4 1.777 4 4s-1.777 4-4 4-4-1.777-4-4 1.777-4 4-4z"/>
</svg>
