<svg xmlns="http://www.w3.org/2000/svg" viewBox="0 0 100 100">
  <path fill="#c7ede6" d="M87.215 56.71A15.423 15.423 0 0089 49.5c0-6.621-4.159-12.257-10.001-14.478L79 35c0-11.598-9.402-21-21-21-9.784 0-17.981 6.701-20.313 15.757A14.982 14.982 0 0033 29c-7.692 0-14.023 5.793-14.89 13.252C12.906 43.353 9 47.969 9 53.5 9 59.851 14.149 65 20.5 65c.177 0 .352-.012.526-.022-.004.175-.026.346-.026.522C21 76.822 30.178 86 41.5 86c6.437 0 12.175-2.972 15.934-7.614A11.948 11.948 0 0066 82c4.65 0 8.674-2.65 10.666-6.518 1.052.335 2.171.518 3.334.518 6.075 0 11-4.925 11-11 0-3.311-1.47-6.273-3.785-8.29z"/>
  <path fill="#fdfcef" d="M33.5 75.5H37a3.5 3.5 0 003.5-3.5 3.489 3.489 0 00-3.055-3.455c.028-.179.055-.358.055-.545a3.5 3.5 0 00-3.5-3.5c-1.032 0-1.95.455-2.59 1.165a3.999 3.999 0 00-7.91.835c0 .191.03.374.056.558A2.473 2.473 0 0022 66.5a2.496 2.496 0 00-2.455 2.055A3.495 3.495 0 0019 68.5a3.5 3.5 0 100 7h7.5v.5h7v-.5z"/>
  <path fill="#472b29" d="M35.25 71a.25.25 0 01-.25-.25 2.22 2.22 0 012.218-2.218c.034.009.737-.001 1.244.136a.25.25 0 01-.13.482c-.444-.12-1.1-.12-1.113-.118A1.72 1.72 0 0035.5 70.75a.25.25 0 01-.25.25z"/>
  <circle cx="28.5" cy="75.5" r=".5" fill="#472b29"/>
  <path fill="#472b29" d="M37 76h-3.5a.5.5 0 010-1H37c1.654 0 3-1.346 3-3a2.996 2.996 0 00-2.618-2.959.502.502 0 01-.43-.573c.023-.154.048-.308.048-.468 0-1.654-1.346-3-3-3-.85 0-1.638.355-2.219 1a.498.498 0 01-.86-.231A3.514 3.514 0 0027.5 63c-1.93 0-3.5 1.57-3.5 3.5 0 .143.021.28.041.418.029.203-.063.438-.242.54-.179.102-.396.118-.556-.01A1.97 1.97 0 0022 67c-.966 0-1.792.691-1.963 1.644a.498.498 0 01-.569.405C19.314 69.025 19.16 69 19 69c-1.654 0-3 1.346-3 3s1.346 3 3 3h7.5a.5.5 0 010 1H19c-2.206 0-4-1.794-4-4a4.004 4.004 0 014.174-3.994A2.993 2.993 0 0122 66c.349 0 .689.061 1.011.18A4.506 4.506 0 0127.5 62a4.523 4.523 0 014.153 2.774A3.979 3.979 0 0134 64a4.004 4.004 0 013.996 4.142A3.999 3.999 0 0141 72c0 2.206-1.794 4-4 4z"/>
  <path fill="#472b29" d="M31.5 75h-1a.5.5 0 000 1h1a.5.5 0 000-1z"/>
  <path fill="#fff" d="M15.405 51H5.5a.5.5 0 010-1h9.905a.5.5 0 010 1zm3.095 0h-1a.5.5 0 010-1h1a.5.5 0 010 1zm4.991 2H14.5a.5.5 0 010-1h8.991a.5.5 0 010 1zM12.5 53h-1a.5.5 0 010-1h1a.5.5 0 010 1zm-3 0h-2a.5.5 0 010-1h2a.5.5 0 010 1zm6 2h-2a.5.5 0 010-1h2a.5.5 0 010 1zm3-9h-1a.5.5 0 000 1h1a.5.5 0 000-1zm0 2h-5a.5.5 0 000 1h5a.5.5 0 000-1zm5 2h-3a.5.5 0 000 1h3a.5.5 0 000-1zm64 15h-10a.5.5 0 010-1h10a.5.5 0 010 1zm4 0h-2a.5.5 0 010-1h2a.5.5 0 010 1zm5 2h-10a.5.5 0 010-1h10a.5.5 0 010 1zm-12 0h-1a.5.5 0 010-1h1a.5.5 0 010 1zm-3.125 0H79.5a.5.5 0 010-1h1.875a.5.5 0 010 1zm9.125-4h-5a.5.5 0 010-1h5a.5.5 0 010 1zm-3 6h-2a.5.5 0 010-1h2a.5.5 0 010 1z"/>
  <path fill="#4792dd" d="M29.989 64.011V35.989a7 7 0 017-7h28.023a7 7 0 017 7v28.023a7 7 0 01-7 7H36.989a7.001 7.001 0 01-7-7.001z"/>
  <path fill="#472b29" d="M65 29.4c3.639 0 6.6 2.961 6.6 6.6v28c0 3.639-2.961 6.6-6.6 6.6H37a6.608 6.608 0 01-6.6-6.6V36c0-3.639 2.961-6.6 6.6-6.6h28m0-1.4H37a8 8 0 00-8 8v28a8 8 0 008 8h28a8 8 0 008-8V36a8 8 0 00-8-8z"/>
  <path fill="#472b29" d="M69.5 41a.5.5 0 01-.5-.5v-4c0-2.481-2.019-4.5-4.5-4.5h-11a.5.5 0 010-1h11c3.032 0 5.5 2.467 5.5 5.5v4a.5.5 0 01-.5.5zm0 16a.5.5 0 01-.5-.5v-9.016a.5.5 0 011 0V56.5a.5.5 0 01-.5.5zm-5 12h-27a5.506 5.506 0 01-5.5-5.5v-27c0-3.033 2.468-5.5 5.5-5.5h7a.5.5 0 010 1h-7a4.505 4.505 0 00-4.5 4.5v27c0 2.481 2.019 4.5 4.5 4.5h27c2.481 0 4.5-2.019 4.5-4.5v-4a.5.5 0 011 0v4c0 3.033-2.468 5.5-5.5 5.5zm-14-37h-3a.5.5 0 010-1h3a.5.5 0 010 1z"/>
  <path fill="#fdfcef" d="M62.5 59.5h-23a3 3 0 01-3-3v-13a3 3 0 013-3h23a3 3 0 013 3v13a3 3 0 01-3 3z"/>
  <path fill="#472b29" d="M62.5 60h-23c-1.93 0-3.5-1.57-3.5-3.5v-13c0-1.93 1.57-3.5 3.5-3.5h23c1.93 0 3.5 1.57 3.5 3.5v13c0 1.93-1.57 3.5-3.5 3.5zm-23-19a2.503 2.503 0 00-2.5 2.5v13c0 1.378 1.121 2.5 2.5 2.5h23c1.379 0 2.5-1.122 2.5-2.5v-13c0-1.378-1.121-2.5-2.5-2.5h-23z"/>
  <path fill="#472b29" d="M51 53.965a4.192 4.192 0 01-2.97-1.228L37.146 41.854a.5.5 0 01.707-.707L48.737 52.03a3.204 3.204 0 004.525 0l10.884-10.884a.5.5 0 01.707.707L53.97 52.737A4.187 4.187 0 0151 53.965z"/>
  <path fill="#472b29" d="M37.5 59a.5.5 0 01-.354-.853l8.5-8.5a.5.5 0 01.707.707l-8.5 8.5A.498.498 0 0137.5 59zm27 0a.502.502 0 01-.354-.146l-8.5-8.5a.5.5 0 01.707-.707l8.5 8.5A.5.5 0 0164.5 59z"/>
  <path fill="#fdfcef" d="M80.875 35.5H87a4.5 4.5 0 004.5-4.5c0-2.333-1.782-4.229-4.055-4.455.022-.181.055-.358.055-.545a4.5 4.5 0 00-4.5-4.5c-1.438 0-2.703.686-3.527 1.736-.14-2.636-2.302-4.736-4.973-4.736a5 5 0 00-5 5c0 .446.077.87.187 1.282A3.477 3.477 0 0067 23.5a3.489 3.489 0 00-3.455 3.055c-.181-.022-.358-.055-.545-.055a4.5 4.5 0 000 9h14.875v.5h3v-.5z"/>
  <path fill="#472b29" d="M74.5 18a5.506 5.506 0 00-5.5 5.5v.047A3.933 3.933 0 0067 23a3.998 3.998 0 00-3.858 3.005A2.22 2.22 0 0063 26c-2.757 0-5 2.243-5 5s2.243 5 5 5h14.875a.5.5 0 000-1H63c-2.206 0-4-1.794-4-4s1.794-4 4-4c.117 0 .23.017.343.032l.141.019a.502.502 0 00.557-.433A2.996 2.996 0 0167 24c.885 0 1.723.401 2.301 1.1a.503.503 0 00.614.126.5.5 0 00.254-.573A4.45 4.45 0 0170 23.5c0-2.481 2.019-4.5 4.5-4.5 2.381 0 4.347 1.872 4.474 4.263a.5.5 0 00.893.282A3.97 3.97 0 0183 22c2.206 0 4 1.794 4 4 0 .117-.017.23-.032.343l-.019.141a.5.5 0 00.446.558A3.976 3.976 0 0191 31c0 2.206-1.794 4-4 4h-6.125a.5.5 0 000 1H87c2.757 0 5-2.243 5-5a4.966 4.966 0 00-4.003-4.877L88 26c0-2.757-2.243-5-5-5a4.932 4.932 0 00-3.183 1.164A5.486 5.486 0 0074.5 18z"/>
  <path fill="#472b29" d="M73 25c-1.403 0-2.609.999-2.913 2.341A2.344 2.344 0 0068.875 27a2.377 2.377 0 00-2.353 2.068 2.628 2.628 0 00-.584-.068 2.94 2.94 0 00-2.918 2.732.25.25 0 00.231.268h.018a.25.25 0 00.249-.232 2.44 2.44 0 012.419-2.268c.229 0 .47.042.738.127.022.007.045.01.067.01a.26.26 0 00.258-.262c0-1.034.841-1.875 1.875-1.875.447 0 .885.168 1.231.473a.252.252 0 00.165.063.231.231 0 00.093-.019.247.247 0 00.155-.212C70.623 26.512 71.712 25.5 73 25.5c.208 0 .425.034.682.107a.25.25 0 00.137-.481A2.94 2.94 0 0073 25zm13.883 1.5a3.007 3.007 0 00-2.874 2.182.25.25 0 10.481.136A2.505 2.505 0 0186.883 27c.117 0 .23.014.342.029a.251.251 0 00.281-.214.249.249 0 00-.214-.281 3.063 3.063 0 00-.409-.034z"/>
</svg>
