<svg xmlns="http://www.w3.org/2000/svg" version="1.1" xml:space="preserve" viewBox="0 0 256 256">
  <g stroke="none" stroke-width="0" stroke-dasharray="none" stroke-linecap="butt" stroke-linejoin="miter" stroke-miterlimit="10" fill="none" fill-rule="nonzero" opacity="1">
    <path d="M90.665 166.648L209.232 48.082a7.595 7.595 0 000-10.741L176.079 4.188a7.595 7.595 0 00-10.742 0L46.771 122.754a7.595 7.595 0 000 10.741l33.153 33.153a7.595 7.595 0 0010.741 0z" opacity="1"/>
    <path d="M90.665 89.352l118.567 118.566a7.595 7.595 0 010 10.741l-33.153 33.153a7.595 7.595 0 01-10.742 0L46.771 133.246a7.595 7.595 0 010-10.741l33.153-33.153a7.595 7.595 0 0110.741 0z" opacity="1"/>
  </g>
</svg>
