<svg xmlns="http://www.w3.org/2000/svg" version="1.1" xml:space="preserve" viewBox="0 0 256 256">
  <g stroke="none" stroke-width="0" stroke-dasharray="none" stroke-linecap="butt" stroke-linejoin="miter" stroke-miterlimit="10" fill="none" fill-rule="nonzero" opacity="1">
    <path d="M225.647 220.342H30.353c-15.679 0-28.389-12.71-28.389-28.389V64.047c0-15.68 12.71-28.39 28.389-28.39h195.291c15.682 0 28.392 12.71 28.392 28.39v127.906c0 15.68-12.71 28.39-28.389 28.39z" fill="#3182bb" opacity="1"/>
    <path d="M161.598 134.467H94.402l-80.554 80.554c4.655 3.336 10.343 5.321 16.505 5.321h195.294c6.957 0 13.32-2.51 18.259-6.663l-82.308-79.212z" fill="#2a6f9f" opacity="1"/>
    <path d="M225.647 35.658H30.353c-7.59 0-14.466 2.996-19.56 7.847L106.35 147.58c11.618 12.747 31.677 12.747 43.295 0L245.19 43.494c-5.089-4.845-11.962-7.836-19.544-7.836z" fill="#368cc9" opacity="1"/>
  </g>
</svg>
