<svg xmlns="http://www.w3.org/2000/svg" viewBox="0 0 100 100">
  <path d="M20 22c-3.854 0-7 3.146-7 7v42c0 3.854 3.146 7 7 7h60c3.854 0 7-3.146 7-7V29c0-3.854-3.146-7-7-7H20zm0 2h60a4.984 4.984 0 015 4.98 4.496 4.496 0 01-1.842 3.614L50 56.88 16.842 32.594A4.496 4.496 0 0115 28.98a4.968 4.968 0 012.791-4.449l31.914 23.373a.5.5 0 00.59 0l16.385-12a.5.5 0 00-.59-.808L50 46.88 18.926 24.12A5.052 5.052 0 0120 24zm56.518 3.588a.5.5 0 00-.313.101l-2 1.463a.5.5 0 10.59.807l2-1.463a.5.5 0 00-.277-.908zm-4 2.928a.5.5 0 00-.051.002.5.5 0 00-.262.1l-4 2.929a.5.5 0 10.59.807l4-2.93a.5.5 0 00-.277-.908zM15 32.116c.341.486.758.924 1.25 1.284a.5.5 0 000 .002l33.455 24.502a.5.5 0 00.59 0L83.75 33.402a.5.5 0 000-.002A5.48 5.48 0 0085 32.115V71c0 2.774-2.226 5-5 5H20c-2.774 0-5-2.226-5-5V32.115zm7.492 7.876A.5.5 0 0022 40.5v33a.5.5 0 101 0v-33a.5.5 0 00-.508-.508zm55 0A.5.5 0 0077 40.5v21a.5.5 0 101 0v-21a.5.5 0 00-.508-.508zm0 24A.5.5 0 0077 64.5v5a.5.5 0 101 0v-5a.5.5 0 00-.508-.508zm0 8A.5.5 0 0077 72.5v1a.5.5 0 101 0v-1a.5.5 0 00-.508-.508z"/>
</svg>
