<svg xmlns="http://www.w3.org/2000/svg" xmlns:xlink="http://www.w3.org/1999/xlink" viewBox="0 0 26 26" fill="#056DF3">
  <path d="M13.5 0C6.601563 0 1 5.601563 1 12.5C1 19.398438 6.601563 25 13.5 25C20.398438 25 26 19.398438 26 12.5C26 5.601563 20.398438 0 13.5 0 Z M 13.5 1.8125C19.398438 1.8125 24.1875 6.601563 24.1875 12.5C24.1875 18.398438 19.398438 23.1875 13.5 23.1875C7.601563 23.1875 2.8125 18.398438 2.8125 12.5C2.8125 6.601563 7.601563 1.8125 13.5 1.8125 Z M 12 6L12 15.3125L8 11.3125L8 14.09375L13.5 19.59375L19 14.09375L19 11.3125L15 15.3125L15 6Z" fill="#056DF3" />
</svg>