<svg xmlns="http://www.w3.org/2000/svg" viewBox="0 0 64 64"><path d="M32 1.0371094C31.65375 1.0371094 31.308359 1.1948125 31.130859 1.5078125L14.130859 31.507812C14.12316 31.521389 14.124186 31.537002 14.117188 31.550781C14.07389 31.635676 14.043093 31.724991 14.025391 31.820312C14.02035 31.847518 14.012509 31.873056 14.009766 31.900391C14.008407 31.91376 14.002775 31.925968 14.001953 31.939453C13.996013 32.037197 14.007831 32.131943 14.029297 32.224609C14.033678 32.24359 14.041398 32.260599 14.046875 32.279297C14.073736 32.370865 14.112675 32.457025 14.164062 32.537109C14.178858 32.560268 14.194158 32.581516 14.210938 32.603516C14.280447 32.694607 14.361421 32.777845 14.460938 32.841797L31.460938 43.751953C31.47156 43.758713 31.483342 43.76125 31.494141 43.767578C31.503907 43.773371 31.511481 43.781625 31.521484 43.787109C31.565925 43.811268 31.613294 43.824781 31.660156 43.841797C31.685373 43.850962 31.708662 43.864016 31.734375 43.871094C31.821271 43.895031 31.910555 43.908203 32 43.908203C32.188 43.908203 32.375062 43.856953 32.539062 43.751953L49.539062 32.841797C49.615312 32.792797 49.683234 32.735484 49.742188 32.669922C49.760538 32.649575 49.772514 32.625203 49.789062 32.603516C49.806207 32.581037 49.820865 32.558843 49.835938 32.535156C49.888014 32.453709 49.928357 32.366664 49.955078 32.273438C49.959518 32.257929 49.967015 32.244217 49.970703 32.228516C49.971001 32.227246 49.97041 32.22588 49.970703 32.224609C49.97229 32.217756 49.977072 32.211972 49.978516 32.205078C49.996594 32.118766 50.003547 32.029953 49.998047 31.939453C49.997225 31.925968 49.991593 31.91376 49.990234 31.900391C49.987431 31.872456 49.979813 31.846158 49.974609 31.818359C49.956571 31.72226 49.924903 31.632308 49.880859 31.546875C49.87447 31.534431 49.876103 31.52009 49.869141 31.507812L32.869141 1.5078125C32.691641 1.1948125 32.34625 1.0371094 32 1.0371094 z M 32 4.0273438L46.552734 29.712891L32.433594 22.917969C32.359905 22.882339 32.281833 22.856239 32.203125 22.839844C32.173211 22.833543 32.143462 22.83358 32.113281 22.830078C32.067611 22.824837 32.022483 22.81923 31.976562 22.820312C31.939056 22.821194 31.902403 22.826915 31.865234 22.832031C31.823633 22.837717 31.782982 22.844524 31.742188 22.855469C31.702626 22.866104 31.665218 22.880929 31.626953 22.896484C31.607059 22.904529 31.58587 22.908592 31.566406 22.917969L17.443359 29.714844L32 4.0273438 z M 31 25.408203L31 41.078125L17.046875 32.125L31 25.408203 z M 33 25.408203L46.953125 32.125L33 41.078125L33 25.408203 z M 1 32C0.448 32 0 32.447 0 33L0 35C0 35.553 0.448 36 1 36C1.552 36 2 35.553 2 35L2 33C2 32.447 1.552 32 1 32 z M 6 32C5.448 32 5 32.447 5 33L5 35C5 35.553 5.448 36 6 36C6.552 36 7 35.553 7 35L7 33C7 32.447 6.552 32 6 32 z M 11 32C10.448 32 10 32.447 10 33L10 35C10 35.553 10.448 36 11 36C11.552 36 12 35.553 12 35L12 33C12 32.447 11.552 32 11 32 z M 53 32C52.447 32 52 32.447 52 33L52 35C52 35.553 52.447 36 53 36C53.553 36 54 35.553 54 35L54 33C54 32.447 53.553 32 53 32 z M 58 32C57.447 32 57 32.447 57 33L57 35C57 35.553 57.447 36 58 36C58.553 36 59 35.553 59 35L59 33C59 32.447 58.553 32 58 32 z M 63 32C62.447 32 62 32.447 62 33L62 35C62 35.553 62.447 36 63 36C63.553 36 64 35.553 64 35L64 33C64 32.447 63.553 32 63 32 z M 14.886719 36.097656C14.663969 36.123281 14.449203 36.222578 14.283203 36.392578C13.952203 36.733578 13.905828 37.261297 14.173828 37.654297L31.173828 62.5625C31.177247 62.567536 31.182046 62.571212 31.185547 62.576172C31.201949 62.599359 31.22387 62.616951 31.242188 62.638672C31.286321 62.691114 31.333637 62.739514 31.386719 62.78125C31.410808 62.80018 31.435031 62.817252 31.460938 62.833984C31.525482 62.875794 31.593487 62.909606 31.666016 62.935547C31.679972 62.940533 31.690807 62.950684 31.705078 62.955078C31.711548 62.957079 31.718115 62.957117 31.724609 62.958984C31.81348 62.984536 31.905139 63 32 63C32.163509 63 32.321852 62.960184 32.462891 62.886719C32.462891 62.886719 32.464844 62.884766 32.464844 62.884766C32.464844 62.884766 32.466797 62.884766 32.466797 62.884766C32.536993 62.847814 32.602281 62.802754 32.662109 62.75C32.662109 62.75 32.664062 62.748047 32.664062 62.748047C32.724438 62.694516 32.779672 62.632453 32.826172 62.564453L49.826172 37.65625C49.826172 37.65625 49.826172 37.654297 49.826172 37.654297C49.892827 37.556553 49.940418 37.451195 49.96875 37.341797C49.96875 37.341797 49.96875 37.339844 49.96875 37.339844C49.997031 37.229844 50.005719 37.117609 49.996094 37.005859C49.976844 36.782359 49.882797 36.565031 49.716797 36.394531C49.551297 36.224031 49.336281 36.123406 49.113281 36.097656C48.890281 36.071906 48.660438 36.119547 48.460938 36.248047L32 46.8125L15.539062 36.248047C15.339062 36.120547 15.109469 36.072031 14.886719 36.097656 z M 18.597656 40.587891L31 48.546875L31 58.761719L18.597656 40.587891 z M 45.402344 40.587891L33 58.761719L33 48.546875L45.402344 40.587891 z"/></svg>