<?xml version="1.0" encoding="utf-8"?>
<svg xmlns="http://www.w3.org/2000/svg" viewBox="0 0 100 100" width="200" height="200">
  <path d="M21 20C15.488666 20 11 24.488666 11 30L11 74C11 77.301625 13.698375 80 17 80L30 80 A 1.0001 1.0001 0 0 0 31 79L31 50.091797L49.400391 63.800781C49.580391 63.930781 49.79 64 50 64C50.21 64 50.409844 63.940547 50.589844 63.810547L69 50.515625L69 79 A 1.0001 1.0001 0 0 0 70 80L83 80C86.301625 80 89 77.301625 89 74L89 30C89 24.488666 84.511334 20 79 20L78.990234 20C76.901015 20 74.776479 20.657697 72.978516 22.011719L50 39.328125L27.021484 22.011719C25.223521 20.657697 23.098985 20 21.009766 20L21 20 z M 21 22L21.009766 22C22.680546 22 24.376323 22.523397 25.818359 23.609375L29 26.007812L29 46.724609L13 34.798828L13 30C13 25.569334 16.569334 22 21 22 z M 78.990234 22L79 22C83.430666 22 87 25.569334 87 30L87 34.798828L71 46.724609L71 26.007812L74.181641 23.609375C75.623677 22.523397 77.319454 22 78.990234 22 z M 30 26.759766L49.263672 41.277344 A 1.0001 1.0001 0 0 0 49.951172 41.585938 A 1.0001 1.0001 0 0 0 50.001953 41.587891 A 1.0001 1.0001 0 0 0 50.728516 41.283203L70 26.759766L70 47.322266L50.009766 61.759766L30 47.320312L30 26.759766 z M 66.509766 33.275391 A 0.50005 0.50005 0 0 0 66.199219 33.380859L60.279297 37.839844 A 0.50058879 0.50058879 0 1 0 60.882812 38.638672L66.800781 34.179688 A 0.50005 0.50005 0 0 0 66.509766 33.275391 z M 13 36.046875L29 47.972656L29 48.794922L29 49L29 78L17 78C14.779625 78 13 76.220375 13 74L13 36.046875 z M 87 36.046875L87 74C87 76.220375 85.220375 78 83 78L71 78L71 49.070312L71 48.535156 A 0.50005 0.50005 0 0 0 71 48.5L71 47.972656L87 36.046875 z M 58.992188 38.939453 A 0.50005 0.50005 0 0 0 58.681641 39.044922L56.904297 40.382812 A 0.50005 0.50005 0 1 0 57.505859 41.181641L59.283203 39.84375 A 0.50005 0.50005 0 0 0 58.992188 38.939453 z M 42.474609 40.056641 A 0.50005 0.50005 0 0 0 42.199219 40.958984L44.246094 42.501953 A 0.50005 0.50005 0 1 0 44.847656 41.703125L42.800781 40.160156 A 0.50005 0.50005 0 0 0 42.474609 40.056641 z M 55.617188 41.482422 A 0.50005 0.50005 0 0 0 55.306641 41.585938L51.96875 44.101562 A 0.50005 0.50005 0 1 0 52.570312 44.898438L55.908203 42.384766 A 0.50005 0.50005 0 0 0 55.617188 41.482422 z M 46.119141 42.800781 A 0.50005 0.50005 0 0 0 45.84375 43.705078L48.757812 45.898438 A 0.50005 0.50005 0 1 0 49.359375 45.101562L46.445312 42.90625 A 0.50005 0.50005 0 0 0 46.119141 42.800781 z M 16.492188 43.992188 A 0.50005 0.50005 0 0 0 16 44.5L16 51.5 A 0.50005 0.50005 0 1 0 17 51.5L17 44.5 A 0.50005 0.50005 0 0 0 16.492188 43.992188 z M 16.492188 53.992188 A 0.50005 0.50005 0 0 0 16 54.5L16 55.5 A 0.50005 0.50005 0 1 0 17 55.5L17 54.5 A 0.50005 0.50005 0 0 0 16.492188 53.992188 z M 16.492188 57.992188 A 0.50005 0.50005 0 0 0 16 58.5L16 60.5 A 0.50005 0.50005 0 1 0 17 60.5L17 58.5 A 0.50005 0.50005 0 0 0 16.492188 57.992188 z M 16.492188 62.992188 A 0.50005 0.50005 0 0 0 16 63.5L16 73.5C16 74.322531 16.677469 75 17.5 75L24.5 75 A 0.50005 0.50005 0 1 0 24.5 74L17.5 74C17.218531 74 17 73.781469 17 73.5L17 63.5 A 0.50005 0.50005 0 0 0 16.492188 62.992188 z" fill="#FFFFFF" />
</svg>