<svg xmlns="http://www.w3.org/2000/svg" xmlns:xlink="http://www.w3.org/1999/xlink" viewBox="0 0 80 80"><path d="M19 10C15.699219 10 13 12.699219 13 16C13 19.300781 15.699219 22 19 22C22.300781 22 25 19.300781 25 16C25 12.699219 22.300781 10 19 10 Z M 64 10C60.699219 10 58 12.699219 58 16C58 17.28125 58.410156 18.46875 59.097656 19.445313L58.820313 20.253906L59.324219 20.996094L60.21875 21.035156L60.488281 20.851563C61.476563 21.570313 62.691406 22 64 22C67.300781 22 70 19.300781 70 16C70 12.699219 67.300781 10 64 10 Z M 19 12C21.222656 12 23 13.777344 23 16C23 18.222656 21.222656 20 19 20C16.777344 20 15 18.222656 15 16C15 13.777344 16.777344 12 19 12 Z M 64 12C66.222656 12 68 13.777344 68 16C68 18.222656 66.222656 20 64 20C61.777344 20 60 18.222656 60 16C60 13.777344 61.777344 12 64 12 Z M 24.265625 21.8125L23.511719 22.292969L23.4375 23.183594L23.625 23.484375L23.691406 23.558594L24.53125 23.875L25.289063 23.402344L25.359375 22.503906L25.171875 22.207031L25.105469 22.136719 Z M 56.546875 22.007813L56.253906 22.207031L56.183594 22.277344L55.890625 23.125L56.394531 23.863281L57.292969 23.90625L57.582031 23.703125L57.652344 23.636719L57.941406 22.789063L57.4375 22.046875 Z M 27.03125 24.84375L26.269531 25.320313L26.203125 26.214844L26.390625 26.511719L26.457031 26.585938L27.292969 26.90625L28.050781 26.429688L28.125 25.535156L27.933594 25.238281L27.867188 25.164063 Z M 53.613281 24.875L53.324219 25.078125L53.253906 25.144531L52.960938 25.996094L53.46875 26.734375L54.359375 26.773438L54.652344 26.574219L54.722656 26.503906L55.015625 25.65625L54.511719 24.917969 Z M 40 25C36.480469 25 33.25 26.226563 30.6875 28.261719L30.628906 28.191406L29.792969 27.871094L29.035156 28.347656L28.964844 29.242188L29.152344 29.542969L29.210938 29.605469C26.609375 32.304688 25 35.964844 25 40C25 48.273438 31.726563 55 40 55C41.074219 55 42.121094 54.882813 43.136719 54.667969L43.722656 55.300781L44.613281 55.207031L45.074219 54.4375L45.039063 54.109375C48.5625 52.847656 51.484375 50.316406 53.234375 47.050781L53.429688 47.777344L53.707031 47.996094L53.796875 48.042969L54.691406 48.0625L55.246094 47.355469L55.011719 46.488281L54.734375 46.273438L54.640625 46.226563L53.75 46.207031L53.46875 46.5625C54.4375 44.578125 55 42.355469 55 40C55 35.96875 53.394531 32.3125 50.796875 29.613281L51.433594 29.640625L51.722656 29.441406L51.796875 29.375L52.085938 28.527344L51.582031 27.785156L50.6875 27.746094L50.394531 27.945313L50.324219 28.015625L50.03125 28.863281L50.0625 28.910156C47.398438 26.488281 43.875 25 40 25 Z M 40 27C47.191406 27 53 32.808594 53 40C53 47.191406 47.191406 53 40 53C32.808594 53 27 47.191406 27 40C27 32.808594 32.808594 27 40 27 Z M 39.5 31.097656L39.5 32.449219C36.867188 32.691406 35.265625 34.183594 35.265625 36.441406C35.265625 38.347656 36.453125 39.65625 38.632813 40.214844L39.5 40.4375L39.5 44.890625C38.046875 44.726563 37.109375 43.914063 37.011719 42.75L34.941406 42.75C34.953125 45.015625 36.707031 46.546875 39.5 46.734375L39.5 48.003906L40.839844 48.003906L40.839844 46.722656C43.703125 46.480469 45.351563 44.988281 45.351563 42.59375C45.351563 40.574219 44.195313 39.332031 41.746094 38.734375L40.839844 38.53125L40.839844 34.324219C42.128906 34.476563 43.007813 35.320313 43.046875 36.390625L45.089844 36.390625C45.027344 34.214844 43.367188 32.671875 40.839844 32.449219L40.839844 31.097656 Z M 39.5 34.3125L39.5 38.25C38.097656 37.964844 37.355469 37.273438 37.355469 36.265625C37.355469 35.203125 38.25 34.378906 39.5 34.3125 Z M 40.839844 40.6875C42.5 41.019531 43.269531 41.695313 43.269531 42.816406C43.269531 44.058594 42.382813 44.820313 40.839844 44.90625 Z M 25.65625 46.949219L25.324219 47.058594L25.234375 47.105469L24.71875 47.839844L25 48.6875L25.847656 48.972656L26.183594 48.863281L26.269531 48.816406L26.785156 48.082031L26.507813 47.234375 Z M 67 48C65.074219 48 63.359375 48.921875 62.261719 50.339844L62.253906 50.328125L61.980469 50.109375L61.890625 50.0625L60.996094 50.042969L60.441406 50.75L60.675781 51.613281L60.953125 51.828125L61.042969 51.875L61.394531 51.886719C61.144531 52.542969 61 53.253906 61 54C61 57.300781 63.699219 60 67 60C70.300781 60 73 57.300781 73 54C73 50.699219 70.300781 48 67 48 Z M 57.371094 48.125L56.816406 48.828125L57.050781 49.695313L57.332031 49.910156L57.421875 49.957031L58.3125 49.980469L58.867188 49.273438L58.632813 48.40625L58.355469 48.191406L58.265625 48.144531 Z M 22.046875 48.890625L21.714844 49L21.625 49.046875L21.109375 49.78125L21.390625 50.636719L22.238281 50.921875L22.574219 50.8125L22.660156 50.761719L23.175781 50.03125L22.898438 49.175781 Z M 13 49C9.699219 49 7 51.699219 7 55C7 58.300781 9.699219 61 13 61C16.300781 61 19 58.300781 19 55C19 54.242188 18.851563 53.523438 18.59375 52.855469L18.628906 52.863281L18.964844 52.753906L19.050781 52.707031L19.566406 51.972656L19.289063 51.125L18.4375 50.839844L18.105469 50.949219L18.015625 50.996094L17.757813 51.363281C16.660156 49.929688 14.9375 49 13 49 Z M 67 50C69.222656 50 71 51.777344 71 54C71 56.222656 69.222656 58 67 58C64.777344 58 63 56.222656 63 54C63 51.777344 64.777344 50 67 50 Z M 13 51C15.222656 51 17 52.777344 17 55C17 57.222656 15.222656 59 13 59C10.777344 59 9 57.222656 9 55C9 52.777344 10.777344 51 13 51 Z M 45.542969 57.273438L44.648438 57.367188L44.191406 58.136719L44.226563 58.484375L44.253906 58.582031L44.863281 59.238281L45.753906 59.144531L46.214844 58.375L46.175781 58.027344L46.148438 57.929688 Z M 46.679688 61.210938L45.789063 61.304688L45.328125 62.074219L45.367188 62.425781L45.394531 62.519531L45.449219 62.578125C43.417969 63.542969 42 65.609375 42 68C42 71.300781 44.699219 74 48 74C51.300781 74 54 71.300781 54 68C54 64.699219 51.300781 62 48 62C47.769531 62 47.546875 62.015625 47.324219 62.042969L47.316406 61.964844L47.289063 61.871094 Z M 48 64C50.222656 64 52 65.777344 52 68C52 70.222656 50.222656 72 48 72C45.777344 72 44 70.222656 44 68C44 65.777344 45.777344 64 48 64Z"/></svg>