<svg xmlns="http://www.w3.org/2000/svg" xmlns:xlink="http://www.w3.org/1999/xlink" viewBox="0 0 24 24" fill="#056DF3">
  <path d="M7.8066406 3C7.4826406 3 7.1914062 3.1941406 7.0664062 3.4941406C6.9424062 3.7931406 7.0122344 4.1362344 7.2402344 4.3652344L8.2304688 5.3554688L3.7070312 9.8789062C3.3170312 10.268906 3.3170312 10.902969 3.7070312 11.292969C4.0970312 11.682969 4.7310937 11.682969 5.1210938 11.292969L9.6445312 6.7695312L10.634766 7.7597656C10.863766 7.9877656 11.206859 8.0575938 11.505859 7.9335938C11.604859 7.8925938 11.692625 7.8327656 11.765625 7.7597656C11.912625 7.6127656 12 7.4103594 12 7.1933594L12 3.8007812C12 3.3587813 11.641219 3 11.199219 3L7.8066406 3 z M 19.5 3C18.672 3 18 3.672 18 4.5L18 19.5C18 20.328 18.672 21 19.5 21C20.328 21 21 20.328 21 19.5L21 4.5C21 3.672 20.328 3 19.5 3 z M 14.5 11C13.672 11 13 11.672 13 12.5L13 19.5C13 20.328 13.672 21 14.5 21C15.328 21 16 20.328 16 19.5L16 12.5C16 11.672 15.328 11 14.5 11 z M 9.5 15C8.672 15 8 15.672 8 16.5L8 19.5C8 20.328 8.672 21 9.5 21C10.328 21 11 20.328 11 19.5L11 16.5C11 15.672 10.328 15 9.5 15 z M 4.5 17C3.672 17 3 17.672 3 18.5L3 19.5C3 20.328 3.672 21 4.5 21C5.328 21 6 20.328 6 19.5L6 18.5C6 17.672 5.328 17 4.5 17 z" fill="#056DF3" />
</svg>