<svg xmlns="http://www.w3.org/2000/svg" width="96" viewBox="0 0 96 96" height="96" version="1.0"><defs><clipPath id="a"><path d="M 9.601562 5.101562 L 85.351562 5.101562 L 85.351562 80.851562 L 9.601562 80.851562 Z M 9.601562 5.101562"/></clipPath></defs><g clip-path="url(#a)"><path fill="#FAD02C" d="M 47.476562 5.101562 C 26.59375 5.101562 9.601562 22.09375 9.601562 42.976562 C 9.601562 63.855469 26.59375 80.851562 47.476562 80.851562 C 68.355469 80.851562 85.351562 63.855469 85.351562 42.976562 C 85.351562 22.09375 68.355469 5.101562 47.476562 5.101562 Z M 47.476562 11.414062 C 64.945312 11.414062 79.039062 25.507812 79.039062 42.976562 C 79.039062 60.445312 64.945312 74.539062 47.476562 74.539062 C 30.007812 74.539062 15.914062 60.445312 15.914062 42.976562 C 15.914062 25.507812 30.007812 11.414062 47.476562 11.414062 Z M 47.476562 17.726562 C 47.058594 17.726562 46.648438 17.765625 46.242188 17.847656 C 45.835938 17.929688 45.441406 18.046875 45.058594 18.207031 C 44.675781 18.363281 44.3125 18.558594 43.96875 18.789062 C 43.625 19.019531 43.304688 19.28125 43.011719 19.574219 C 42.71875 19.867188 42.457031 20.1875 42.226562 20.53125 C 41.996094 20.875 41.800781 21.238281 41.644531 21.621094 C 41.484375 22.003906 41.363281 22.398438 41.285156 22.808594 C 41.203125 23.214844 41.164062 23.625 41.164062 24.039062 C 41.164062 24.453125 41.203125 24.863281 41.285156 25.269531 C 41.363281 25.675781 41.484375 26.070312 41.644531 26.453125 C 41.800781 26.835938 41.996094 27.199219 42.226562 27.546875 C 42.457031 27.890625 42.71875 28.207031 43.011719 28.5 C 43.304688 28.792969 43.625 29.054688 43.96875 29.285156 C 44.3125 29.515625 44.675781 29.710938 45.058594 29.871094 C 45.441406 30.027344 45.835938 30.148438 46.242188 30.230469 C 46.648438 30.308594 47.058594 30.351562 47.476562 30.351562 C 47.890625 30.351562 48.300781 30.308594 48.707031 30.230469 C 49.113281 30.148438 49.507812 30.027344 49.890625 29.871094 C 50.273438 29.710938 50.636719 29.515625 50.980469 29.285156 C 51.328125 29.054688 51.644531 28.792969 51.9375 28.5 C 52.230469 28.207031 52.492188 27.890625 52.722656 27.546875 C 52.953125 27.199219 53.148438 26.835938 53.308594 26.453125 C 53.464844 26.070312 53.585938 25.675781 53.667969 25.269531 C 53.746094 24.863281 53.789062 24.453125 53.789062 24.039062 C 53.789062 23.625 53.746094 23.214844 53.667969 22.808594 C 53.585938 22.398438 53.464844 22.003906 53.308594 21.621094 C 53.148438 21.238281 52.953125 20.875 52.722656 20.53125 C 52.492188 20.1875 52.230469 19.867188 51.9375 19.574219 C 51.644531 19.28125 51.328125 19.019531 50.980469 18.789062 C 50.636719 18.558594 50.273438 18.363281 49.890625 18.207031 C 49.507812 18.046875 49.113281 17.929688 48.707031 17.847656 C 48.300781 17.765625 47.890625 17.726562 47.476562 17.726562 Z M 66.535156 20.851562 C 65.683594 20.828125 64.945312 21.101562 64.316406 21.675781 L 51.007812 33.507812 L 43.941406 33.507812 L 30.632812 21.675781 C 30.320312 21.398438 29.964844 21.191406 29.570312 21.054688 C 29.175781 20.917969 28.769531 20.863281 28.351562 20.886719 C 27.933594 20.910156 27.535156 21.015625 27.160156 21.199219 C 26.78125 21.382812 26.453125 21.628906 26.175781 21.941406 C 25.898438 22.253906 25.691406 22.609375 25.554688 23.003906 C 25.417969 23.402344 25.359375 23.808594 25.386719 24.226562 C 25.410156 24.644531 25.515625 25.039062 25.699219 25.417969 C 25.878906 25.792969 26.128906 26.121094 26.441406 26.398438 L 40.644531 39.023438 C 40.804688 39.167969 40.976562 39.292969 41.164062 39.398438 L 41.164062 48.777344 L 29.265625 63.046875 C 28.148438 64.390625 28.332031 66.378906 29.671875 67.492188 C 31.015625 68.605469 33 68.429688 34.117188 67.089844 L 45.378906 54.742188 C 46.503906 53.507812 48.449219 53.507812 49.570312 54.742188 L 60.832031 67.089844 C 61.457031 67.84375 62.355469 68.226562 63.261719 68.226562 C 63.976562 68.226562 64.683594 67.988281 65.277344 67.5 C 66.613281 66.382812 66.800781 64.390625 65.683594 63.046875 L 53.789062 48.777344 L 53.789062 39.394531 C 53.972656 39.289062 54.144531 39.164062 54.304688 39.023438 L 68.507812 26.398438 C 69.003906 25.972656 69.332031 25.445312 69.5 24.816406 C 69.667969 24.1875 69.640625 23.5625 69.421875 22.949219 C 69.207031 22.335938 68.832031 21.835938 68.304688 21.453125 C 67.777344 21.070312 67.1875 20.867188 66.535156 20.851562 Z M 22.226562 33.507812 C 20.484375 33.507812 19.070312 34.921875 19.070312 36.664062 C 19.070312 38.40625 20.484375 39.820312 22.226562 39.820312 L 35.378906 39.820312 L 28.519531 33.507812 Z M 66.429688 33.507812 L 59.570312 39.820312 L 72.726562 39.820312 C 74.46875 39.820312 75.882812 38.40625 75.882812 36.664062 C 75.882812 34.921875 74.46875 33.507812 72.726562 33.507812 Z M 45.453125 61.691406 L 38.339844 69.488281 C 38.753906 70.421875 39.5625 71.160156 40.644531 71.339844 C 40.820312 71.371094 40.996094 71.382812 41.167969 71.382812 C 42.683594 71.382812 44.015625 70.285156 44.277344 68.742188 Z M 49.496094 61.691406 L 50.675781 68.742188 C 50.933594 70.285156 52.265625 71.382812 53.78125 71.382812 C 53.953125 71.382812 54.128906 71.371094 54.304688 71.339844 C 55.386719 71.160156 56.195312 70.421875 56.609375 69.488281 Z M 49.496094 61.691406"/></g><g fill="#FFDE59"><g><g><path d="M 8.421875 -7.6875 L 8.421875 0 L 7.03125 0 L 7.03125 -1.71875 C 7.03125 -2.664062 7.070312 -3.628906 7.15625 -4.609375 L 5.203125 -0.21875 L 3.953125 -0.21875 L 2.09375 -4.578125 C 2.175781 -3.578125 2.21875 -2.625 2.21875 -1.71875 L 2.21875 0 L 0.859375 0 L 0.859375 -7.6875 L 2.140625 -7.6875 L 4.625 -1.78125 L 7.140625 -7.6875 Z M 8.421875 -7.6875" transform="translate(25.405 91.988)"/></g></g><g><g><path d="M 5.828125 -1.671875 C 5.710938 -1.117188 5.414062 -0.675781 4.9375 -0.34375 C 4.457031 -0.0078125 3.882812 0.15625 3.21875 0.15625 C 2.664062 0.15625 2.175781 0.0351562 1.75 -0.203125 C 1.332031 -0.441406 1.007812 -0.773438 0.78125 -1.203125 C 0.550781 -1.640625 0.4375 -2.140625 0.4375 -2.703125 C 0.4375 -3.265625 0.550781 -3.757812 0.78125 -4.1875 C 1.019531 -4.613281 1.347656 -4.941406 1.765625 -5.171875 C 2.179688 -5.398438 2.65625 -5.515625 3.1875 -5.515625 C 3.707031 -5.515625 4.164062 -5.40625 4.5625 -5.1875 C 4.957031 -4.96875 5.265625 -4.664062 5.484375 -4.28125 C 5.703125 -3.894531 5.8125 -3.457031 5.8125 -2.96875 C 5.8125 -2.695312 5.796875 -2.472656 5.765625 -2.296875 L 1.75 -2.296875 C 1.769531 -1.890625 1.910156 -1.5625 2.171875 -1.3125 C 2.441406 -1.070312 2.789062 -0.953125 3.21875 -0.953125 C 3.539062 -0.953125 3.816406 -1.015625 4.046875 -1.140625 C 4.273438 -1.265625 4.4375 -1.441406 4.53125 -1.671875 Z M 4.453125 -3.203125 C 4.441406 -3.578125 4.316406 -3.875 4.078125 -4.09375 C 3.835938 -4.3125 3.523438 -4.421875 3.140625 -4.421875 C 2.753906 -4.421875 2.429688 -4.304688 2.171875 -4.078125 C 1.921875 -3.859375 1.789062 -3.566406 1.78125 -3.203125 Z M 4.453125 -3.203125" transform="translate(34.668 91.988)"/></g></g><g><g><path d="M 0.4375 -2.6875 C 0.4375 -3.25 0.550781 -3.742188 0.78125 -4.171875 C 1.019531 -4.597656 1.351562 -4.925781 1.78125 -5.15625 C 2.21875 -5.394531 2.710938 -5.515625 3.265625 -5.515625 C 3.992188 -5.515625 4.601562 -5.320312 5.09375 -4.9375 C 5.582031 -4.550781 5.863281 -4.039062 5.9375 -3.40625 L 4.578125 -3.40625 C 4.492188 -3.707031 4.332031 -3.9375 4.09375 -4.09375 C 3.863281 -4.257812 3.582031 -4.34375 3.25 -4.34375 C 2.8125 -4.34375 2.457031 -4.191406 2.1875 -3.890625 C 1.914062 -3.597656 1.78125 -3.191406 1.78125 -2.671875 C 1.78125 -2.179688 1.910156 -1.785156 2.171875 -1.484375 C 2.429688 -1.179688 2.785156 -1.03125 3.234375 -1.03125 C 3.585938 -1.03125 3.882812 -1.113281 4.125 -1.28125 C 4.363281 -1.457031 4.515625 -1.679688 4.578125 -1.953125 L 5.9375 -1.953125 C 5.863281 -1.328125 5.582031 -0.816406 5.09375 -0.421875 C 4.601562 -0.0351562 4 0.15625 3.28125 0.15625 C 2.71875 0.15625 2.21875 0.0390625 1.78125 -0.1875 C 1.351562 -0.425781 1.019531 -0.757812 0.78125 -1.1875 C 0.550781 -1.625 0.4375 -2.125 0.4375 -2.6875 Z M 0.4375 -2.6875" transform="translate(40.856 91.988)"/></g></g><g><g><path d="M 6.1875 -5.34375 L 6.1875 0 L 4.90625 0 L 4.90625 -0.75 C 4.71875 -0.46875 4.453125 -0.242188 4.109375 -0.078125 C 3.765625 0.078125 3.382812 0.15625 2.96875 0.15625 C 2.46875 0.15625 2.023438 0.0390625 1.640625 -0.1875 C 1.253906 -0.425781 0.957031 -0.753906 0.75 -1.171875 C 0.539062 -1.597656 0.4375 -2.09375 0.4375 -2.65625 C 0.4375 -3.21875 0.546875 -3.71875 0.765625 -4.15625 C 0.992188 -4.59375 1.304688 -4.925781 1.703125 -5.15625 C 2.097656 -5.394531 2.554688 -5.515625 3.078125 -5.515625 C 3.484375 -5.515625 3.847656 -5.441406 4.171875 -5.296875 C 4.503906 -5.148438 4.765625 -4.941406 4.953125 -4.671875 L 5.0625 -5.34375 Z M 3.296875 -1.0625 C 3.742188 -1.0625 4.109375 -1.210938 4.390625 -1.515625 C 4.679688 -1.816406 4.828125 -2.210938 4.828125 -2.703125 C 4.828125 -3.191406 4.6875 -3.582031 4.40625 -3.875 C 4.132812 -4.164062 3.769531 -4.3125 3.3125 -4.3125 C 2.851562 -4.3125 2.484375 -4.160156 2.203125 -3.859375 C 1.929688 -3.566406 1.796875 -3.175781 1.796875 -2.6875 C 1.796875 -2.195312 1.929688 -1.800781 2.203125 -1.5 C 2.484375 -1.207031 2.847656 -1.0625 3.296875 -1.0625 Z M 3.296875 -1.0625" transform="translate(47.225 91.988)"/></g></g><g><g><path d="M 2.71875 0.15625 C 2.0625 0.15625 1.523438 0 1.109375 -0.3125 C 0.691406 -0.625 0.46875 -1.046875 0.4375 -1.578125 L 1.75 -1.578125 C 1.769531 -1.335938 1.863281 -1.15625 2.03125 -1.03125 C 2.207031 -0.90625 2.4375 -0.84375 2.71875 -0.84375 C 2.988281 -0.84375 3.195312 -0.894531 3.34375 -1 C 3.5 -1.113281 3.578125 -1.269531 3.578125 -1.46875 C 3.578125 -1.644531 3.515625 -1.773438 3.390625 -1.859375 C 3.273438 -1.953125 3.125 -2.015625 2.9375 -2.046875 L 2.03125 -2.265625 C 1.519531 -2.378906 1.144531 -2.566406 0.90625 -2.828125 C 0.675781 -3.097656 0.5625 -3.421875 0.5625 -3.796875 C 0.5625 -4.316406 0.757812 -4.734375 1.15625 -5.046875 C 1.550781 -5.359375 2.066406 -5.515625 2.703125 -5.515625 C 3.335938 -5.515625 3.847656 -5.359375 4.234375 -5.046875 C 4.628906 -4.734375 4.832031 -4.320312 4.84375 -3.8125 L 3.53125 -3.8125 C 3.53125 -4.03125 3.453125 -4.203125 3.296875 -4.328125 C 3.140625 -4.453125 2.929688 -4.515625 2.671875 -4.515625 C 2.441406 -4.515625 2.257812 -4.460938 2.125 -4.359375 C 1.988281 -4.265625 1.921875 -4.125 1.921875 -3.9375 C 1.921875 -3.75 1.972656 -3.617188 2.078125 -3.546875 C 2.191406 -3.484375 2.351562 -3.425781 2.5625 -3.375 L 3.59375 -3.140625 C 4.050781 -3.023438 4.390625 -2.832031 4.609375 -2.5625 C 4.835938 -2.289062 4.953125 -1.960938 4.953125 -1.578125 C 4.953125 -1.054688 4.75 -0.632812 4.34375 -0.3125 C 3.945312 0 3.40625 0.15625 2.71875 0.15625 Z M 2.71875 0.15625" transform="translate(54.121 91.988)"/></g></g><g><g><path d="M 0.4375 -2.671875 C 0.4375 -3.222656 0.554688 -3.710938 0.796875 -4.140625 C 1.046875 -4.566406 1.394531 -4.898438 1.84375 -5.140625 C 2.289062 -5.390625 2.796875 -5.515625 3.359375 -5.515625 C 3.921875 -5.515625 4.425781 -5.390625 4.875 -5.140625 C 5.320312 -4.898438 5.664062 -4.566406 5.90625 -4.140625 C 6.15625 -3.710938 6.28125 -3.222656 6.28125 -2.671875 C 6.28125 -2.140625 6.15625 -1.65625 5.90625 -1.21875 C 5.664062 -0.789062 5.320312 -0.453125 4.875 -0.203125 C 4.4375 0.0351562 3.929688 0.15625 3.359375 0.15625 C 2.796875 0.15625 2.289062 0.0351562 1.84375 -0.203125 C 1.394531 -0.453125 1.046875 -0.789062 0.796875 -1.21875 C 0.554688 -1.65625 0.4375 -2.140625 0.4375 -2.671875 Z M 1.8125 -2.6875 C 1.8125 -2.207031 1.953125 -1.8125 2.234375 -1.5 C 2.523438 -1.195312 2.898438 -1.046875 3.359375 -1.046875 C 3.828125 -1.046875 4.203125 -1.195312 4.484375 -1.5 C 4.773438 -1.8125 4.921875 -2.207031 4.921875 -2.6875 C 4.921875 -3.164062 4.773438 -3.554688 4.484375 -3.859375 C 4.203125 -4.171875 3.828125 -4.328125 3.359375 -4.328125 C 2.898438 -4.328125 2.523438 -4.171875 2.234375 -3.859375 C 1.953125 -3.554688 1.8125 -3.164062 1.8125 -2.6875 Z M 1.8125 -2.6875" transform="translate(64.891 91.988)"/></g></g></g></svg>