<?xml version="1.0" encoding="UTF-8"?>
<svg xmlns="http://www.w3.org/2000/svg" xmlns:xlink="http://www.w3.org/1999/xlink" width="800px" height="147px" viewBox="0 0 771 147" version="1.1">
<g id="surface1">
<path style=" stroke:none;fill-rule:nonzero;fill:rgb(0%,0%,0%);fill-opacity:1;" d="M 213.761719 139.792969 L 213.761719 22.75 C 213.761719 20.921875 214.675781 19.09375 217.414062 19.09375 L 228.375 19.09375 C 230.203125 19.09375 232.03125 20.007812 232.03125 22.75 L 232.03125 140.707031 C 232.03125 142.535156 231.117188 144.367188 228.375 144.367188 L 217.414062 144.367188 C 215.585938 143.453125 213.761719 142.535156 213.761719 139.792969 Z M 254.867188 33.722656 L 254.867188 22.75 C 254.867188 20.921875 255.78125 19.09375 258.523438 19.09375 L 270.398438 19.09375 C 272.226562 19.09375 274.050781 20.007812 274.050781 22.75 L 274.050781 33.722656 C 274.050781 35.550781 273.136719 37.382812 270.398438 37.382812 L 258.523438 37.382812 C 255.78125 37.382812 254.867188 35.550781 254.867188 33.722656 Z M 254.867188 139.792969 L 254.867188 56.582031 C 254.867188 54.753906 256.695312 52.925781 258.523438 52.925781 L 268.570312 52.925781 C 270.398438 52.925781 272.226562 53.839844 272.226562 56.582031 L 272.226562 140.707031 C 272.226562 142.535156 271.3125 144.367188 268.570312 144.367188 L 258.523438 144.367188 C 256.695312 143.453125 254.867188 142.535156 254.867188 139.792969 Z M 295.0625 139.792969 L 295.0625 56.582031 C 295.0625 54.753906 295.976562 52.925781 298.71875 52.925781 L 308.765625 52.925781 C 310.59375 52.925781 312.417969 53.839844 312.417969 56.582031 L 312.417969 62.070312 L 313.332031 62.070312 C 316.988281 57.5 322.46875 53.839844 330.691406 51.097656 L 331.601562 51.097656 C 344.390625 49.269531 354.441406 52.011719 361.75 59.328125 C 367.230469 65.726562 370.882812 73.042969 370.882812 84.015625 L 370.882812 139.792969 C 370.882812 141.621094 369.96875 143.453125 367.230469 143.453125 L 356.269531 143.453125 C 354.441406 143.453125 352.613281 142.535156 352.613281 139.792969 L 352.613281 89.5 C 352.613281 73.957031 346.21875 66.640625 333.429688 66.640625 C 327.035156 66.640625 321.554688 68.472656 317.902344 72.128906 C 314.246094 75.785156 312.417969 81.273438 312.417969 87.671875 L 312.417969 140.707031 C 312.417969 142.535156 311.507812 144.367188 308.765625 144.367188 L 298.71875 144.367188 C 295.976562 143.453125 295.0625 142.535156 295.0625 139.792969 Z M 389.152344 139.792969 L 389.152344 22.75 C 389.152344 20.921875 390.066406 19.09375 392.808594 19.09375 L 402.855469 19.09375 C 404.683594 19.09375 406.511719 20.007812 406.511719 22.75 L 406.511719 94.074219 L 407.425781 94.074219 L 443.050781 55.667969 C 443.050781 54.753906 443.964844 53.839844 444.878906 53.839844 L 456.753906 53.839844 C 459.492188 53.839844 460.40625 57.5 458.582031 59.328125 L 433.003906 88.585938 C 432.089844 89.5 432.089844 91.332031 433.003906 92.246094 L 464.0625 139.792969 C 464.976562 141.621094 464.0625 145.28125 461.320312 145.28125 L 450.359375 145.28125 C 449.445312 145.28125 448.53125 145.28125 447.617188 144.367188 L 419.300781 101.390625 L 418.386719 101.390625 L 406.511719 114.191406 C 405.597656 115.105469 405.597656 115.105469 405.597656 116.019531 L 405.597656 141.621094 C 405.597656 143.453125 404.683594 145.28125 401.941406 145.28125 L 392.808594 145.28125 C 390.980469 143.453125 389.152344 142.535156 389.152344 139.792969 Z M 485.074219 115.105469 L 485.074219 67.554688 L 475.023438 67.554688 C 473.195312 67.554688 471.371094 66.640625 471.371094 63.898438 L 471.371094 56.582031 C 472.28125 54.753906 473.195312 52.925781 475.023438 52.925781 L 485.984375 52.925781 L 485.984375 34.636719 C 485.984375 32.808594 486.898438 30.980469 489.640625 30.980469 L 498.773438 30.980469 C 500.601562 30.980469 502.429688 31.894531 502.429688 34.636719 L 502.429688 52.925781 L 520.699219 52.925781 C 522.527344 52.925781 524.351562 53.839844 524.351562 56.582031 L 524.351562 64.8125 C 524.351562 66.640625 523.441406 68.472656 520.699219 68.472656 L 502.429688 68.472656 L 502.429688 114.191406 C 502.429688 119.675781 503.34375 122.421875 504.257812 125.164062 C 506.082031 126.992188 508.824219 128.820312 513.390625 128.820312 L 517.046875 128.820312 C 518.871094 128.820312 520.699219 129.734375 520.699219 132.480469 L 520.699219 141.621094 C 520.699219 143.453125 519.785156 145.28125 517.046875 145.28125 L 511.5625 145.28125 C 502.429688 145.28125 495.121094 143.453125 490.554688 138.878906 C 487.8125 131.5625 485.074219 125.164062 485.074219 115.105469 Z M 542.625 139.792969 L 542.625 56.582031 C 542.625 54.753906 543.535156 52.925781 545.363281 52.925781 L 554.5 52.925781 C 556.324219 52.925781 558.152344 53.839844 558.152344 56.582031 L 558.152344 62.984375 L 559.066406 62.984375 C 560.894531 60.242188 563.632812 57.5 566.375 54.753906 C 570.027344 52.925781 572.769531 52.011719 577.335938 52.011719 C 579.164062 52.011719 580.992188 52.011719 582.816406 52.925781 C 584.644531 53.839844 584.644531 54.753906 584.644531 56.582031 L 583.730469 66.640625 C 582.816406 68.472656 581.902344 69.386719 580.078125 68.472656 C 579.164062 68.472656 578.25 67.554688 576.421875 67.554688 C 565.460938 67.554688 559.980469 74.871094 559.980469 89.5 L 559.980469 139.792969 C 559.980469 141.621094 559.066406 143.453125 556.324219 143.453125 L 545.363281 143.453125 C 543.535156 143.453125 542.625 142.535156 542.625 139.792969 Z M 661.378906 114.191406 L 668.6875 119.675781 C 669.601562 120.589844 670.515625 122.421875 669.601562 123.335938 C 665.945312 128.820312 661.378906 132.480469 656.8125 137.050781 C 650.417969 140.707031 643.109375 143.453125 633.972656 143.453125 C 621.183594 143.453125 611.136719 138.878906 603.828125 130.648438 C 596.519531 122.421875 591.953125 110.53125 591.953125 95.902344 C 591.953125 81.273438 595.605469 70.300781 603.828125 61.15625 C 612.050781 52.011719 620.269531 48.355469 633.058594 48.355469 C 644.9375 48.355469 654.984375 52.925781 662.292969 61.15625 C 669.601562 69.386719 673.253906 81.273438 673.253906 95.902344 L 673.253906 97.730469 C 673.253906 99.558594 672.339844 101.390625 669.601562 101.390625 L 612.050781 101.390625 C 610.222656 101.390625 608.394531 103.21875 608.394531 105.046875 C 609.308594 111.449219 611.136719 116.933594 614.789062 121.503906 C 619.359375 126.992188 624.839844 129.734375 633.058594 129.734375 C 636.714844 129.734375 640.367188 128.820312 643.109375 127.90625 C 645.847656 126.992188 648.589844 125.164062 650.417969 123.335938 C 652.242188 121.503906 654.070312 119.675781 654.984375 117.847656 C 655.898438 116.933594 655.898438 116.019531 656.8125 116.019531 C 656.8125 113.277344 659.550781 113.277344 661.378906 114.191406 Z M 608.394531 87.671875 L 656.8125 87.671875 C 655.898438 81.273438 654.984375 74.871094 650.417969 70.300781 C 646.761719 64.8125 640.367188 62.984375 632.148438 62.984375 C 624.839844 62.984375 618.445312 65.726562 614.789062 71.214844 C 610.222656 75.785156 608.394531 81.273438 608.394531 87.671875 Z M 759.125 114.191406 L 766.433594 119.675781 C 767.347656 120.589844 768.257812 122.421875 767.347656 123.335938 C 763.691406 128.820312 759.125 132.480469 754.558594 137.050781 C 748.164062 140.707031 740.855469 143.453125 731.71875 143.453125 C 718.929688 143.453125 708.882812 138.878906 701.574219 130.648438 C 693.351562 122.421875 689.699219 110.53125 689.699219 95.902344 C 689.699219 81.273438 693.351562 70.300781 701.574219 61.15625 C 708.882812 52.925781 718.015625 48.355469 730.804688 48.355469 C 742.679688 48.355469 752.730469 52.925781 760.039062 61.15625 C 767.347656 69.386719 771 81.273438 771 95.902344 L 771 97.730469 C 771 99.558594 770.085938 101.390625 767.347656 101.390625 L 708.882812 101.390625 C 707.054688 101.390625 705.226562 103.21875 705.226562 105.046875 C 706.140625 111.449219 707.96875 116.933594 711.621094 121.503906 C 716.191406 126.992188 721.671875 129.734375 729.890625 129.734375 C 733.546875 129.734375 737.199219 128.820312 739.941406 127.90625 C 742.679688 126.992188 745.421875 125.164062 747.25 123.335938 C 749.074219 121.503906 750.902344 119.675781 751.816406 117.847656 C 752.730469 116.933594 752.730469 116.019531 753.644531 116.019531 C 754.558594 113.277344 757.296875 113.277344 759.125 114.191406 Z M 706.140625 87.671875 L 754.558594 87.671875 C 753.644531 81.273438 752.730469 74.871094 748.164062 70.300781 C 744.507812 64.8125 738.113281 62.984375 729.890625 62.984375 C 722.585938 62.984375 716.191406 65.726562 712.535156 71.214844 C 707.96875 75.785156 706.140625 81.273438 706.140625 87.671875 Z M 706.140625 87.671875 "/>
<path style=" stroke:none;fill-rule:nonzero;fill:rgb(22.352941%,87.843137%,60.784314%);fill-opacity:1;" d="M 67.597656 6.292969 C 65.773438 2.632812 61.203125 1.71875 57.550781 3.546875 C 56.636719 4.464844 54.808594 5.378906 54.808594 6.292969 L 6.394531 94.074219 C 4.566406 98.644531 7.308594 103.21875 12.789062 103.21875 L 45.675781 103.21875 L 45.675781 136.136719 C 45.675781 139.792969 48.414062 142.535156 52.070312 142.535156 L 71.253906 142.535156 C 74.90625 142.535156 77.648438 139.792969 77.648438 136.136719 L 77.648438 103.21875 L 68.511719 103.21875 C 64.859375 103.21875 62.117188 100.476562 61.203125 96.816406 C 61.203125 95.902344 61.203125 94.988281 62.117188 93.160156 L 89.523438 43.78125 Z M 67.597656 6.292969 "/>
<path style=" stroke:none;fill-rule:nonzero;fill:rgb(15.686275%,74.901961%,48.627451%);fill-opacity:1;" d="M 110.535156 6.292969 C 112.363281 2.632812 116.929688 1.71875 120.582031 3.546875 C 121.496094 4.464844 122.410156 5.378906 123.324219 6.292969 L 171.738281 94.074219 C 173.566406 98.644531 170.824219 103.21875 165.34375 103.21875 L 133.371094 103.21875 L 133.371094 136.136719 C 133.371094 139.792969 130.632812 142.535156 126.976562 142.535156 L 106.878906 142.535156 C 103.226562 142.535156 100.484375 139.792969 100.484375 136.136719 L 100.484375 103.21875 L 109.621094 103.21875 C 113.273438 103.21875 116.015625 100.476562 116.929688 96.816406 C 116.929688 95.902344 116.929688 94.988281 116.015625 93.160156 L 88.609375 43.78125 Z M 110.535156 6.292969 "/>
</g>
</svg>
