<?xml version="1.0" encoding="utf-8"?>
<!-- Generator: Adobe Illustrator 25.4.1, SVG Export Plug-In . SVG Version: 6.00 Build 0)  -->
<svg version="1.1" id="Layer_1" xmlns="http://www.w3.org/2000/svg" xmlns:xlink="http://www.w3.org/1999/xlink" x="0px" y="0px"
	 viewBox="0 0 84.4 15.5" style="enable-background:new 0 0 84.4 15.5;" xml:space="preserve">
<style type="text/css">
	.st0{fill:#39E09B;}
	.st1{fill:#28BF7C;}
</style>
<a>
	<polygon points="0,0 0,0 0,0 	"/>
	<path d="M23.4,15V2.2c0-0.2,0.1-0.4,0.4-0.4H25c0.2,0,0.4,0.1,0.4,0.4v12.9c0,0.2-0.1,0.4-0.4,0.4h-1.2
		C23.6,15.4,23.4,15.3,23.4,15L23.4,15z M27.9,3.4V2.2c0-0.2,0.1-0.4,0.4-0.4h1.3c0.2,0,0.4,0.1,0.4,0.4v1.2c0,0.2-0.1,0.4-0.4,0.4
		h-1.3C28,3.8,27.9,3.6,27.9,3.4L27.9,3.4z M27.9,15V5.9c0-0.2,0.2-0.4,0.4-0.4h1.1c0.2,0,0.4,0.1,0.4,0.4v9.2
		c0,0.2-0.1,0.4-0.4,0.4h-1.1C28.1,15.4,27.9,15.3,27.9,15z M32.3,15V5.9c0-0.2,0.1-0.4,0.4-0.4h1.1c0.2,0,0.4,0.1,0.4,0.4v0.6h0.1
		c0.4-0.5,1-0.9,1.9-1.2h0.1c1.4-0.2,2.5,0.1,3.3,0.9c0.6,0.7,1,1.5,1,2.7v6.1c0,0.2-0.1,0.4-0.4,0.4H39c-0.2,0-0.4-0.1-0.4-0.4V9.5
		c0-1.7-0.7-2.5-2.1-2.5c-0.7,0-1.3,0.2-1.7,0.6c-0.4,0.4-0.6,1-0.6,1.7v5.8c0,0.2-0.1,0.4-0.4,0.4h-1.1
		C32.4,15.4,32.3,15.3,32.3,15z M42.6,15V2.2c0-0.2,0.1-0.4,0.4-0.4h1.1c0.2,0,0.4,0.1,0.4,0.4V10h0.1l3.9-4.2
		c0-0.1,0.1-0.2,0.2-0.2H50c0.3,0,0.4,0.4,0.2,0.6l-2.8,3.2c-0.1,0.1-0.1,0.3,0,0.4c0,0,0,0,0,0l3.4,5.2c0.1,0.2,0,0.6-0.3,0.6h-1.2
		c-0.1,0-0.2,0-0.3-0.1l-3.1-4.7h-0.1l-1.3,1.4c-0.1,0.1-0.1,0.1-0.1,0.2v2.8c0,0.2-0.1,0.4-0.4,0.4H43C42.8,15.4,42.6,15.3,42.6,15
		L42.6,15z M53.1,12.3V7.1H52c-0.2,0-0.4-0.1-0.4-0.4V5.9c0.1-0.2,0.2-0.4,0.4-0.4h1.2v-2c0-0.2,0.1-0.4,0.4-0.4h1
		c0.2,0,0.4,0.1,0.4,0.4v2H57c0.2,0,0.4,0.1,0.4,0.4v0.9c0,0.2-0.1,0.4-0.4,0.4H55v5c0,0.6,0.1,0.9,0.2,1.2c0.2,0.2,0.5,0.4,1,0.4
		h0.4c0.2,0,0.4,0.1,0.4,0.4v1c0,0.2-0.1,0.4-0.4,0.4h-0.6c-1,0-1.8-0.2-2.3-0.7C53.4,14.1,53.1,13.4,53.1,12.3z M59.4,15V5.9
		c0-0.2,0.1-0.4,0.3-0.4h1c0.2,0,0.4,0.1,0.4,0.4v0.7h0.1C61.4,6.3,61.7,6,62,5.7c0.4-0.2,0.7-0.3,1.2-0.3c0.2,0,0.4,0,0.6,0.1
		c0.2,0.1,0.2,0.2,0.2,0.4L63.9,7c-0.1,0.2-0.2,0.3-0.4,0.2c-0.1,0-0.2-0.1-0.4-0.1c-1.2,0-1.8,0.8-1.8,2.4V15
		c0,0.2-0.1,0.4-0.4,0.4h-1.2C59.5,15.4,59.4,15.3,59.4,15z M72.4,12.2l0.8,0.6c0.1,0.1,0.2,0.3,0.1,0.4c-0.4,0.6-0.9,1-1.4,1.5
		c-0.7,0.4-1.5,0.7-2.5,0.7c-1.4,0-2.5-0.5-3.3-1.4s-1.3-2.2-1.3-3.8c0-1.6,0.4-2.8,1.3-3.8S67.9,5,69.3,5c1.3,0,2.4,0.5,3.2,1.4
		c0.8,0.9,1.2,2.2,1.2,3.8v0.2c0,0.2-0.1,0.4-0.4,0.4H67c-0.2,0-0.4,0.2-0.4,0.4c0.1,0.7,0.3,1.3,0.7,1.8c0.5,0.6,1.1,0.9,2,0.9
		c0.4,0,0.8-0.1,1.1-0.2c0.3-0.1,0.6-0.3,0.8-0.5c0.2-0.2,0.4-0.4,0.5-0.6c0.1-0.1,0.1-0.2,0.2-0.2C71.9,12.1,72.2,12.1,72.4,12.2z
		 M66.6,9.3h5.3c-0.1-0.7-0.2-1.4-0.7-1.9c-0.4-0.6-1.1-0.8-2-0.8c-0.8,0-1.5,0.3-1.9,0.9C66.8,8,66.6,8.6,66.6,9.3z M83.1,12.2
		l0.8,0.6c0.1,0.1,0.2,0.3,0.1,0.4c-0.4,0.6-0.9,1-1.4,1.5c-0.7,0.4-1.5,0.7-2.5,0.7c-1.4,0-2.5-0.5-3.3-1.4
		c-0.9-0.9-1.3-2.2-1.3-3.8c0-1.6,0.4-2.8,1.3-3.8C77.6,5.5,78.6,5,80,5c1.3,0,2.4,0.5,3.2,1.4c0.8,0.9,1.2,2.2,1.2,3.8v0.2
		c0,0.2-0.1,0.4-0.4,0.4h-6.4c-0.2,0-0.4,0.2-0.4,0.4c0.1,0.7,0.3,1.3,0.7,1.8c0.5,0.6,1.1,0.9,2,0.9c0.4,0,0.8-0.1,1.1-0.2
		c0.3-0.1,0.6-0.3,0.8-0.5c0.2-0.2,0.4-0.4,0.5-0.6c0.1-0.1,0.1-0.2,0.2-0.2C82.6,12.1,82.9,12.1,83.1,12.2z M77.3,9.3h5.3
		c-0.1-0.7-0.2-1.4-0.7-1.9c-0.4-0.6-1.1-0.8-2-0.8c-0.8,0-1.5,0.3-1.9,0.9C77.5,8,77.3,8.6,77.3,9.3z"/>
	<path class="st0" d="M7.4,0.4C7.2,0,6.7-0.1,6.3,0.1C6.2,0.2,6,0.3,6,0.4L0.7,10c-0.2,0.5,0.1,1,0.7,1h3.6v3.6
		c0,0.4,0.3,0.7,0.7,0.7h2.1c0.4,0,0.7-0.3,0.7-0.7v-3.6h-1c-0.4,0-0.7-0.3-0.8-0.7c0-0.1,0-0.2,0.1-0.4l3-5.4L7.4,0.4z"/>
	<path class="st1" d="M12.1,0.4c0.2-0.4,0.7-0.5,1.1-0.3c0.1,0.1,0.2,0.2,0.3,0.3l5.3,9.6c0.2,0.5-0.1,1-0.7,1h-3.5v3.6
		c0,0.4-0.3,0.7-0.7,0.7h-2.2c-0.4,0-0.7-0.3-0.7-0.7v-3.6h1c0.4,0,0.7-0.3,0.8-0.7c0-0.1,0-0.2-0.1-0.4l-3-5.4L12.1,0.4z"/>
</a>
</svg>
